G04 #@! TF.GenerationSoftware,KiCad,Pcbnew,(5.1.4)-1*
G04 #@! TF.CreationDate,2020-02-13T09:56:34+00:00*
G04 #@! TF.ProjectId,Phono stereo 2 smd,50686f6e-6f20-4737-9465-72656f203220,rev?*
G04 #@! TF.SameCoordinates,Original*
G04 #@! TF.FileFunction,Soldermask,Top*
G04 #@! TF.FilePolarity,Negative*
%FSLAX46Y46*%
G04 Gerber Fmt 4.6, Leading zero omitted, Abs format (unit mm)*
G04 Created by KiCad (PCBNEW (5.1.4)-1) date 2020-02-13 09:56:34*
%MOMM*%
%LPD*%
G04 APERTURE LIST*
%ADD10C,0.100000*%
G04 APERTURE END LIST*
D10*
G36*
X39080674Y-54371465D02*
G01*
X39118367Y-54382899D01*
X39153103Y-54401466D01*
X39183548Y-54426452D01*
X39208534Y-54456897D01*
X39227101Y-54491633D01*
X39238535Y-54529326D01*
X39243000Y-54574661D01*
X39243000Y-55661339D01*
X39238535Y-55706674D01*
X39227101Y-55744367D01*
X39208534Y-55779103D01*
X39183548Y-55809548D01*
X39153103Y-55834534D01*
X39118367Y-55853101D01*
X39080674Y-55864535D01*
X39035339Y-55869000D01*
X38198661Y-55869000D01*
X38153326Y-55864535D01*
X38115633Y-55853101D01*
X38080897Y-55834534D01*
X38050452Y-55809548D01*
X38025466Y-55779103D01*
X38006899Y-55744367D01*
X37995465Y-55706674D01*
X37991000Y-55661339D01*
X37991000Y-54574661D01*
X37995465Y-54529326D01*
X38006899Y-54491633D01*
X38025466Y-54456897D01*
X38050452Y-54426452D01*
X38080897Y-54401466D01*
X38115633Y-54382899D01*
X38153326Y-54371465D01*
X38198661Y-54367000D01*
X39035339Y-54367000D01*
X39080674Y-54371465D01*
X39080674Y-54371465D01*
G37*
G36*
X37030674Y-54371465D02*
G01*
X37068367Y-54382899D01*
X37103103Y-54401466D01*
X37133548Y-54426452D01*
X37158534Y-54456897D01*
X37177101Y-54491633D01*
X37188535Y-54529326D01*
X37193000Y-54574661D01*
X37193000Y-55661339D01*
X37188535Y-55706674D01*
X37177101Y-55744367D01*
X37158534Y-55779103D01*
X37133548Y-55809548D01*
X37103103Y-55834534D01*
X37068367Y-55853101D01*
X37030674Y-55864535D01*
X36985339Y-55869000D01*
X36148661Y-55869000D01*
X36103326Y-55864535D01*
X36065633Y-55853101D01*
X36030897Y-55834534D01*
X36000452Y-55809548D01*
X35975466Y-55779103D01*
X35956899Y-55744367D01*
X35945465Y-55706674D01*
X35941000Y-55661339D01*
X35941000Y-54574661D01*
X35945465Y-54529326D01*
X35956899Y-54491633D01*
X35975466Y-54456897D01*
X36000452Y-54426452D01*
X36030897Y-54401466D01*
X36065633Y-54382899D01*
X36103326Y-54371465D01*
X36148661Y-54367000D01*
X36985339Y-54367000D01*
X37030674Y-54371465D01*
X37030674Y-54371465D01*
G37*
G36*
X48340674Y-54505465D02*
G01*
X48378367Y-54516899D01*
X48413103Y-54535466D01*
X48443548Y-54560452D01*
X48468534Y-54590897D01*
X48487101Y-54625633D01*
X48498535Y-54663326D01*
X48503000Y-54708661D01*
X48503000Y-55545339D01*
X48498535Y-55590674D01*
X48487101Y-55628367D01*
X48468534Y-55663103D01*
X48443548Y-55693548D01*
X48413103Y-55718534D01*
X48378367Y-55737101D01*
X48340674Y-55748535D01*
X48295339Y-55753000D01*
X47208661Y-55753000D01*
X47163326Y-55748535D01*
X47125633Y-55737101D01*
X47090897Y-55718534D01*
X47060452Y-55693548D01*
X47035466Y-55663103D01*
X47016899Y-55628367D01*
X47005465Y-55590674D01*
X47001000Y-55545339D01*
X47001000Y-54708661D01*
X47005465Y-54663326D01*
X47016899Y-54625633D01*
X47035466Y-54590897D01*
X47060452Y-54560452D01*
X47090897Y-54535466D01*
X47125633Y-54516899D01*
X47163326Y-54505465D01*
X47208661Y-54501000D01*
X48295339Y-54501000D01*
X48340674Y-54505465D01*
X48340674Y-54505465D01*
G37*
G36*
X46054674Y-54505465D02*
G01*
X46092367Y-54516899D01*
X46127103Y-54535466D01*
X46157548Y-54560452D01*
X46182534Y-54590897D01*
X46201101Y-54625633D01*
X46212535Y-54663326D01*
X46217000Y-54708661D01*
X46217000Y-55545339D01*
X46212535Y-55590674D01*
X46201101Y-55628367D01*
X46182534Y-55663103D01*
X46157548Y-55693548D01*
X46127103Y-55718534D01*
X46092367Y-55737101D01*
X46054674Y-55748535D01*
X46009339Y-55753000D01*
X44922661Y-55753000D01*
X44877326Y-55748535D01*
X44839633Y-55737101D01*
X44804897Y-55718534D01*
X44774452Y-55693548D01*
X44749466Y-55663103D01*
X44730899Y-55628367D01*
X44719465Y-55590674D01*
X44715000Y-55545339D01*
X44715000Y-54708661D01*
X44719465Y-54663326D01*
X44730899Y-54625633D01*
X44749466Y-54590897D01*
X44774452Y-54560452D01*
X44804897Y-54535466D01*
X44839633Y-54516899D01*
X44877326Y-54505465D01*
X44922661Y-54501000D01*
X46009339Y-54501000D01*
X46054674Y-54505465D01*
X46054674Y-54505465D01*
G37*
G36*
X43768674Y-54505465D02*
G01*
X43806367Y-54516899D01*
X43841103Y-54535466D01*
X43871548Y-54560452D01*
X43896534Y-54590897D01*
X43915101Y-54625633D01*
X43926535Y-54663326D01*
X43931000Y-54708661D01*
X43931000Y-55545339D01*
X43926535Y-55590674D01*
X43915101Y-55628367D01*
X43896534Y-55663103D01*
X43871548Y-55693548D01*
X43841103Y-55718534D01*
X43806367Y-55737101D01*
X43768674Y-55748535D01*
X43723339Y-55753000D01*
X42636661Y-55753000D01*
X42591326Y-55748535D01*
X42553633Y-55737101D01*
X42518897Y-55718534D01*
X42488452Y-55693548D01*
X42463466Y-55663103D01*
X42444899Y-55628367D01*
X42433465Y-55590674D01*
X42429000Y-55545339D01*
X42429000Y-54708661D01*
X42433465Y-54663326D01*
X42444899Y-54625633D01*
X42463466Y-54590897D01*
X42488452Y-54560452D01*
X42518897Y-54535466D01*
X42553633Y-54516899D01*
X42591326Y-54505465D01*
X42636661Y-54501000D01*
X43723339Y-54501000D01*
X43768674Y-54505465D01*
X43768674Y-54505465D01*
G37*
G36*
X41482674Y-54505465D02*
G01*
X41520367Y-54516899D01*
X41555103Y-54535466D01*
X41585548Y-54560452D01*
X41610534Y-54590897D01*
X41629101Y-54625633D01*
X41640535Y-54663326D01*
X41645000Y-54708661D01*
X41645000Y-55545339D01*
X41640535Y-55590674D01*
X41629101Y-55628367D01*
X41610534Y-55663103D01*
X41585548Y-55693548D01*
X41555103Y-55718534D01*
X41520367Y-55737101D01*
X41482674Y-55748535D01*
X41437339Y-55753000D01*
X40350661Y-55753000D01*
X40305326Y-55748535D01*
X40267633Y-55737101D01*
X40232897Y-55718534D01*
X40202452Y-55693548D01*
X40177466Y-55663103D01*
X40158899Y-55628367D01*
X40147465Y-55590674D01*
X40143000Y-55545339D01*
X40143000Y-54708661D01*
X40147465Y-54663326D01*
X40158899Y-54625633D01*
X40177466Y-54590897D01*
X40202452Y-54560452D01*
X40232897Y-54535466D01*
X40267633Y-54516899D01*
X40305326Y-54505465D01*
X40350661Y-54501000D01*
X41437339Y-54501000D01*
X41482674Y-54505465D01*
X41482674Y-54505465D01*
G37*
G36*
X50626674Y-54505465D02*
G01*
X50664367Y-54516899D01*
X50699103Y-54535466D01*
X50729548Y-54560452D01*
X50754534Y-54590897D01*
X50773101Y-54625633D01*
X50784535Y-54663326D01*
X50789000Y-54708661D01*
X50789000Y-55545339D01*
X50784535Y-55590674D01*
X50773101Y-55628367D01*
X50754534Y-55663103D01*
X50729548Y-55693548D01*
X50699103Y-55718534D01*
X50664367Y-55737101D01*
X50626674Y-55748535D01*
X50581339Y-55753000D01*
X49494661Y-55753000D01*
X49449326Y-55748535D01*
X49411633Y-55737101D01*
X49376897Y-55718534D01*
X49346452Y-55693548D01*
X49321466Y-55663103D01*
X49302899Y-55628367D01*
X49291465Y-55590674D01*
X49287000Y-55545339D01*
X49287000Y-54708661D01*
X49291465Y-54663326D01*
X49302899Y-54625633D01*
X49321466Y-54590897D01*
X49346452Y-54560452D01*
X49376897Y-54535466D01*
X49411633Y-54516899D01*
X49449326Y-54505465D01*
X49494661Y-54501000D01*
X50581339Y-54501000D01*
X50626674Y-54505465D01*
X50626674Y-54505465D01*
G37*
G36*
X52719562Y-52418181D02*
G01*
X52754481Y-52428774D01*
X52786663Y-52445976D01*
X52814873Y-52469127D01*
X52838024Y-52497337D01*
X52855226Y-52529519D01*
X52865819Y-52564438D01*
X52870000Y-52606895D01*
X52870000Y-54073105D01*
X52865819Y-54115562D01*
X52855226Y-54150481D01*
X52838024Y-54182663D01*
X52814873Y-54210873D01*
X52786663Y-54234024D01*
X52754481Y-54251226D01*
X52719562Y-54261819D01*
X52677105Y-54266000D01*
X51535895Y-54266000D01*
X51493438Y-54261819D01*
X51458519Y-54251226D01*
X51426337Y-54234024D01*
X51398127Y-54210873D01*
X51374976Y-54182663D01*
X51357774Y-54150481D01*
X51347181Y-54115562D01*
X51343000Y-54073105D01*
X51343000Y-52606895D01*
X51347181Y-52564438D01*
X51357774Y-52529519D01*
X51374976Y-52497337D01*
X51398127Y-52469127D01*
X51426337Y-52445976D01*
X51458519Y-52428774D01*
X51493438Y-52418181D01*
X51535895Y-52414000D01*
X52677105Y-52414000D01*
X52719562Y-52418181D01*
X52719562Y-52418181D01*
G37*
G36*
X55694562Y-52418181D02*
G01*
X55729481Y-52428774D01*
X55761663Y-52445976D01*
X55789873Y-52469127D01*
X55813024Y-52497337D01*
X55830226Y-52529519D01*
X55840819Y-52564438D01*
X55845000Y-52606895D01*
X55845000Y-54073105D01*
X55840819Y-54115562D01*
X55830226Y-54150481D01*
X55813024Y-54182663D01*
X55789873Y-54210873D01*
X55761663Y-54234024D01*
X55729481Y-54251226D01*
X55694562Y-54261819D01*
X55652105Y-54266000D01*
X54510895Y-54266000D01*
X54468438Y-54261819D01*
X54433519Y-54251226D01*
X54401337Y-54234024D01*
X54373127Y-54210873D01*
X54349976Y-54182663D01*
X54332774Y-54150481D01*
X54322181Y-54115562D01*
X54318000Y-54073105D01*
X54318000Y-52606895D01*
X54322181Y-52564438D01*
X54332774Y-52529519D01*
X54349976Y-52497337D01*
X54373127Y-52469127D01*
X54401337Y-52445976D01*
X54433519Y-52428774D01*
X54468438Y-52418181D01*
X54510895Y-52414000D01*
X55652105Y-52414000D01*
X55694562Y-52418181D01*
X55694562Y-52418181D01*
G37*
G36*
X28902674Y-52339465D02*
G01*
X28940367Y-52350899D01*
X28975103Y-52369466D01*
X29005548Y-52394452D01*
X29030534Y-52424897D01*
X29049101Y-52459633D01*
X29060535Y-52497326D01*
X29065000Y-52542661D01*
X29065000Y-53629339D01*
X29060535Y-53674674D01*
X29049101Y-53712367D01*
X29030534Y-53747103D01*
X29005548Y-53777548D01*
X28975103Y-53802534D01*
X28940367Y-53821101D01*
X28902674Y-53832535D01*
X28857339Y-53837000D01*
X28020661Y-53837000D01*
X27975326Y-53832535D01*
X27937633Y-53821101D01*
X27902897Y-53802534D01*
X27872452Y-53777548D01*
X27847466Y-53747103D01*
X27828899Y-53712367D01*
X27817465Y-53674674D01*
X27813000Y-53629339D01*
X27813000Y-52542661D01*
X27817465Y-52497326D01*
X27828899Y-52459633D01*
X27847466Y-52424897D01*
X27872452Y-52394452D01*
X27902897Y-52369466D01*
X27937633Y-52350899D01*
X27975326Y-52339465D01*
X28020661Y-52335000D01*
X28857339Y-52335000D01*
X28902674Y-52339465D01*
X28902674Y-52339465D01*
G37*
G36*
X30952674Y-52339465D02*
G01*
X30990367Y-52350899D01*
X31025103Y-52369466D01*
X31055548Y-52394452D01*
X31080534Y-52424897D01*
X31099101Y-52459633D01*
X31110535Y-52497326D01*
X31115000Y-52542661D01*
X31115000Y-53629339D01*
X31110535Y-53674674D01*
X31099101Y-53712367D01*
X31080534Y-53747103D01*
X31055548Y-53777548D01*
X31025103Y-53802534D01*
X30990367Y-53821101D01*
X30952674Y-53832535D01*
X30907339Y-53837000D01*
X30070661Y-53837000D01*
X30025326Y-53832535D01*
X29987633Y-53821101D01*
X29952897Y-53802534D01*
X29922452Y-53777548D01*
X29897466Y-53747103D01*
X29878899Y-53712367D01*
X29867465Y-53674674D01*
X29863000Y-53629339D01*
X29863000Y-52542661D01*
X29867465Y-52497326D01*
X29878899Y-52459633D01*
X29897466Y-52424897D01*
X29922452Y-52394452D01*
X29952897Y-52369466D01*
X29987633Y-52350899D01*
X30025326Y-52339465D01*
X30070661Y-52335000D01*
X30907339Y-52335000D01*
X30952674Y-52339465D01*
X30952674Y-52339465D01*
G37*
G36*
X33354674Y-52473465D02*
G01*
X33392367Y-52484899D01*
X33427103Y-52503466D01*
X33457548Y-52528452D01*
X33482534Y-52558897D01*
X33501101Y-52593633D01*
X33512535Y-52631326D01*
X33517000Y-52676661D01*
X33517000Y-53513339D01*
X33512535Y-53558674D01*
X33501101Y-53596367D01*
X33482534Y-53631103D01*
X33457548Y-53661548D01*
X33427103Y-53686534D01*
X33392367Y-53705101D01*
X33354674Y-53716535D01*
X33309339Y-53721000D01*
X32222661Y-53721000D01*
X32177326Y-53716535D01*
X32139633Y-53705101D01*
X32104897Y-53686534D01*
X32074452Y-53661548D01*
X32049466Y-53631103D01*
X32030899Y-53596367D01*
X32019465Y-53558674D01*
X32015000Y-53513339D01*
X32015000Y-52676661D01*
X32019465Y-52631326D01*
X32030899Y-52593633D01*
X32049466Y-52558897D01*
X32074452Y-52528452D01*
X32104897Y-52503466D01*
X32139633Y-52484899D01*
X32177326Y-52473465D01*
X32222661Y-52469000D01*
X33309339Y-52469000D01*
X33354674Y-52473465D01*
X33354674Y-52473465D01*
G37*
G36*
X46054674Y-52455465D02*
G01*
X46092367Y-52466899D01*
X46127103Y-52485466D01*
X46157548Y-52510452D01*
X46182534Y-52540897D01*
X46201101Y-52575633D01*
X46212535Y-52613326D01*
X46217000Y-52658661D01*
X46217000Y-53495339D01*
X46212535Y-53540674D01*
X46201101Y-53578367D01*
X46182534Y-53613103D01*
X46157548Y-53643548D01*
X46127103Y-53668534D01*
X46092367Y-53687101D01*
X46054674Y-53698535D01*
X46009339Y-53703000D01*
X44922661Y-53703000D01*
X44877326Y-53698535D01*
X44839633Y-53687101D01*
X44804897Y-53668534D01*
X44774452Y-53643548D01*
X44749466Y-53613103D01*
X44730899Y-53578367D01*
X44719465Y-53540674D01*
X44715000Y-53495339D01*
X44715000Y-52658661D01*
X44719465Y-52613326D01*
X44730899Y-52575633D01*
X44749466Y-52540897D01*
X44774452Y-52510452D01*
X44804897Y-52485466D01*
X44839633Y-52466899D01*
X44877326Y-52455465D01*
X44922661Y-52451000D01*
X46009339Y-52451000D01*
X46054674Y-52455465D01*
X46054674Y-52455465D01*
G37*
G36*
X50626674Y-52455465D02*
G01*
X50664367Y-52466899D01*
X50699103Y-52485466D01*
X50729548Y-52510452D01*
X50754534Y-52540897D01*
X50773101Y-52575633D01*
X50784535Y-52613326D01*
X50789000Y-52658661D01*
X50789000Y-53495339D01*
X50784535Y-53540674D01*
X50773101Y-53578367D01*
X50754534Y-53613103D01*
X50729548Y-53643548D01*
X50699103Y-53668534D01*
X50664367Y-53687101D01*
X50626674Y-53698535D01*
X50581339Y-53703000D01*
X49494661Y-53703000D01*
X49449326Y-53698535D01*
X49411633Y-53687101D01*
X49376897Y-53668534D01*
X49346452Y-53643548D01*
X49321466Y-53613103D01*
X49302899Y-53578367D01*
X49291465Y-53540674D01*
X49287000Y-53495339D01*
X49287000Y-52658661D01*
X49291465Y-52613326D01*
X49302899Y-52575633D01*
X49321466Y-52540897D01*
X49346452Y-52510452D01*
X49376897Y-52485466D01*
X49411633Y-52466899D01*
X49449326Y-52455465D01*
X49494661Y-52451000D01*
X50581339Y-52451000D01*
X50626674Y-52455465D01*
X50626674Y-52455465D01*
G37*
G36*
X48340674Y-52455465D02*
G01*
X48378367Y-52466899D01*
X48413103Y-52485466D01*
X48443548Y-52510452D01*
X48468534Y-52540897D01*
X48487101Y-52575633D01*
X48498535Y-52613326D01*
X48503000Y-52658661D01*
X48503000Y-53495339D01*
X48498535Y-53540674D01*
X48487101Y-53578367D01*
X48468534Y-53613103D01*
X48443548Y-53643548D01*
X48413103Y-53668534D01*
X48378367Y-53687101D01*
X48340674Y-53698535D01*
X48295339Y-53703000D01*
X47208661Y-53703000D01*
X47163326Y-53698535D01*
X47125633Y-53687101D01*
X47090897Y-53668534D01*
X47060452Y-53643548D01*
X47035466Y-53613103D01*
X47016899Y-53578367D01*
X47005465Y-53540674D01*
X47001000Y-53495339D01*
X47001000Y-52658661D01*
X47005465Y-52613326D01*
X47016899Y-52575633D01*
X47035466Y-52540897D01*
X47060452Y-52510452D01*
X47090897Y-52485466D01*
X47125633Y-52466899D01*
X47163326Y-52455465D01*
X47208661Y-52451000D01*
X48295339Y-52451000D01*
X48340674Y-52455465D01*
X48340674Y-52455465D01*
G37*
G36*
X43768674Y-52455465D02*
G01*
X43806367Y-52466899D01*
X43841103Y-52485466D01*
X43871548Y-52510452D01*
X43896534Y-52540897D01*
X43915101Y-52575633D01*
X43926535Y-52613326D01*
X43931000Y-52658661D01*
X43931000Y-53495339D01*
X43926535Y-53540674D01*
X43915101Y-53578367D01*
X43896534Y-53613103D01*
X43871548Y-53643548D01*
X43841103Y-53668534D01*
X43806367Y-53687101D01*
X43768674Y-53698535D01*
X43723339Y-53703000D01*
X42636661Y-53703000D01*
X42591326Y-53698535D01*
X42553633Y-53687101D01*
X42518897Y-53668534D01*
X42488452Y-53643548D01*
X42463466Y-53613103D01*
X42444899Y-53578367D01*
X42433465Y-53540674D01*
X42429000Y-53495339D01*
X42429000Y-52658661D01*
X42433465Y-52613326D01*
X42444899Y-52575633D01*
X42463466Y-52540897D01*
X42488452Y-52510452D01*
X42518897Y-52485466D01*
X42553633Y-52466899D01*
X42591326Y-52455465D01*
X42636661Y-52451000D01*
X43723339Y-52451000D01*
X43768674Y-52455465D01*
X43768674Y-52455465D01*
G37*
G36*
X41482674Y-52455465D02*
G01*
X41520367Y-52466899D01*
X41555103Y-52485466D01*
X41585548Y-52510452D01*
X41610534Y-52540897D01*
X41629101Y-52575633D01*
X41640535Y-52613326D01*
X41645000Y-52658661D01*
X41645000Y-53495339D01*
X41640535Y-53540674D01*
X41629101Y-53578367D01*
X41610534Y-53613103D01*
X41585548Y-53643548D01*
X41555103Y-53668534D01*
X41520367Y-53687101D01*
X41482674Y-53698535D01*
X41437339Y-53703000D01*
X40350661Y-53703000D01*
X40305326Y-53698535D01*
X40267633Y-53687101D01*
X40232897Y-53668534D01*
X40202452Y-53643548D01*
X40177466Y-53613103D01*
X40158899Y-53578367D01*
X40147465Y-53540674D01*
X40143000Y-53495339D01*
X40143000Y-52658661D01*
X40147465Y-52613326D01*
X40158899Y-52575633D01*
X40177466Y-52540897D01*
X40202452Y-52510452D01*
X40232897Y-52485466D01*
X40267633Y-52466899D01*
X40305326Y-52455465D01*
X40350661Y-52451000D01*
X41437339Y-52451000D01*
X41482674Y-52455465D01*
X41482674Y-52455465D01*
G37*
G36*
X37030674Y-52085465D02*
G01*
X37068367Y-52096899D01*
X37103103Y-52115466D01*
X37133548Y-52140452D01*
X37158534Y-52170897D01*
X37177101Y-52205633D01*
X37188535Y-52243326D01*
X37193000Y-52288661D01*
X37193000Y-53375339D01*
X37188535Y-53420674D01*
X37177101Y-53458367D01*
X37158534Y-53493103D01*
X37133548Y-53523548D01*
X37103103Y-53548534D01*
X37068367Y-53567101D01*
X37030674Y-53578535D01*
X36985339Y-53583000D01*
X36148661Y-53583000D01*
X36103326Y-53578535D01*
X36065633Y-53567101D01*
X36030897Y-53548534D01*
X36000452Y-53523548D01*
X35975466Y-53493103D01*
X35956899Y-53458367D01*
X35945465Y-53420674D01*
X35941000Y-53375339D01*
X35941000Y-52288661D01*
X35945465Y-52243326D01*
X35956899Y-52205633D01*
X35975466Y-52170897D01*
X36000452Y-52140452D01*
X36030897Y-52115466D01*
X36065633Y-52096899D01*
X36103326Y-52085465D01*
X36148661Y-52081000D01*
X36985339Y-52081000D01*
X37030674Y-52085465D01*
X37030674Y-52085465D01*
G37*
G36*
X39080674Y-52085465D02*
G01*
X39118367Y-52096899D01*
X39153103Y-52115466D01*
X39183548Y-52140452D01*
X39208534Y-52170897D01*
X39227101Y-52205633D01*
X39238535Y-52243326D01*
X39243000Y-52288661D01*
X39243000Y-53375339D01*
X39238535Y-53420674D01*
X39227101Y-53458367D01*
X39208534Y-53493103D01*
X39183548Y-53523548D01*
X39153103Y-53548534D01*
X39118367Y-53567101D01*
X39080674Y-53578535D01*
X39035339Y-53583000D01*
X38198661Y-53583000D01*
X38153326Y-53578535D01*
X38115633Y-53567101D01*
X38080897Y-53548534D01*
X38050452Y-53523548D01*
X38025466Y-53493103D01*
X38006899Y-53458367D01*
X37995465Y-53420674D01*
X37991000Y-53375339D01*
X37991000Y-52288661D01*
X37995465Y-52243326D01*
X38006899Y-52205633D01*
X38025466Y-52170897D01*
X38050452Y-52140452D01*
X38080897Y-52115466D01*
X38115633Y-52096899D01*
X38153326Y-52085465D01*
X38198661Y-52081000D01*
X39035339Y-52081000D01*
X39080674Y-52085465D01*
X39080674Y-52085465D01*
G37*
G36*
X27004674Y-52228465D02*
G01*
X27042367Y-52239899D01*
X27077103Y-52258466D01*
X27107548Y-52283452D01*
X27132534Y-52313897D01*
X27151101Y-52348633D01*
X27162535Y-52386326D01*
X27167000Y-52431661D01*
X27167000Y-53268339D01*
X27162535Y-53313674D01*
X27151101Y-53351367D01*
X27132534Y-53386103D01*
X27107548Y-53416548D01*
X27077103Y-53441534D01*
X27042367Y-53460101D01*
X27004674Y-53471535D01*
X26959339Y-53476000D01*
X25872661Y-53476000D01*
X25827326Y-53471535D01*
X25789633Y-53460101D01*
X25754897Y-53441534D01*
X25724452Y-53416548D01*
X25699466Y-53386103D01*
X25680899Y-53351367D01*
X25669465Y-53313674D01*
X25665000Y-53268339D01*
X25665000Y-52431661D01*
X25669465Y-52386326D01*
X25680899Y-52348633D01*
X25699466Y-52313897D01*
X25724452Y-52283452D01*
X25754897Y-52258466D01*
X25789633Y-52239899D01*
X25827326Y-52228465D01*
X25872661Y-52224000D01*
X26959339Y-52224000D01*
X27004674Y-52228465D01*
X27004674Y-52228465D01*
G37*
G36*
X23224443Y-51175519D02*
G01*
X23290627Y-51182037D01*
X23460466Y-51233557D01*
X23460468Y-51233558D01*
X23516811Y-51263674D01*
X23616991Y-51317222D01*
X23639997Y-51336103D01*
X23754186Y-51429814D01*
X23825354Y-51516534D01*
X23866778Y-51567009D01*
X23950443Y-51723534D01*
X24001963Y-51893373D01*
X24019359Y-52070000D01*
X24001963Y-52246627D01*
X23950443Y-52416466D01*
X23866778Y-52572991D01*
X23838725Y-52607173D01*
X23754186Y-52710186D01*
X23652729Y-52793448D01*
X23616991Y-52822778D01*
X23460466Y-52906443D01*
X23290627Y-52957963D01*
X23224442Y-52964482D01*
X23158260Y-52971000D01*
X23069740Y-52971000D01*
X23003558Y-52964482D01*
X22937373Y-52957963D01*
X22767534Y-52906443D01*
X22611009Y-52822778D01*
X22575271Y-52793448D01*
X22473814Y-52710186D01*
X22389275Y-52607173D01*
X22361222Y-52572991D01*
X22277557Y-52416466D01*
X22226037Y-52246627D01*
X22208641Y-52070000D01*
X22226037Y-51893373D01*
X22277557Y-51723534D01*
X22361222Y-51567009D01*
X22402646Y-51516534D01*
X22473814Y-51429814D01*
X22588003Y-51336103D01*
X22611009Y-51317222D01*
X22711189Y-51263674D01*
X22767532Y-51233558D01*
X22767534Y-51233557D01*
X22937373Y-51182037D01*
X23003557Y-51175519D01*
X23069740Y-51169000D01*
X23158260Y-51169000D01*
X23224443Y-51175519D01*
X23224443Y-51175519D01*
G37*
G36*
X33354674Y-50423465D02*
G01*
X33392367Y-50434899D01*
X33427103Y-50453466D01*
X33457548Y-50478452D01*
X33482534Y-50508897D01*
X33501101Y-50543633D01*
X33512535Y-50581326D01*
X33517000Y-50626661D01*
X33517000Y-51463339D01*
X33512535Y-51508674D01*
X33501101Y-51546367D01*
X33482534Y-51581103D01*
X33457548Y-51611548D01*
X33427103Y-51636534D01*
X33392367Y-51655101D01*
X33354674Y-51666535D01*
X33309339Y-51671000D01*
X32222661Y-51671000D01*
X32177326Y-51666535D01*
X32139633Y-51655101D01*
X32104897Y-51636534D01*
X32074452Y-51611548D01*
X32049466Y-51581103D01*
X32030899Y-51546367D01*
X32019465Y-51508674D01*
X32015000Y-51463339D01*
X32015000Y-50626661D01*
X32019465Y-50581326D01*
X32030899Y-50543633D01*
X32049466Y-50508897D01*
X32074452Y-50478452D01*
X32104897Y-50453466D01*
X32139633Y-50434899D01*
X32177326Y-50423465D01*
X32222661Y-50419000D01*
X33309339Y-50419000D01*
X33354674Y-50423465D01*
X33354674Y-50423465D01*
G37*
G36*
X50238674Y-50053465D02*
G01*
X50276367Y-50064899D01*
X50311103Y-50083466D01*
X50341548Y-50108452D01*
X50366534Y-50138897D01*
X50385101Y-50173633D01*
X50396535Y-50211326D01*
X50401000Y-50256661D01*
X50401000Y-51343339D01*
X50396535Y-51388674D01*
X50385101Y-51426367D01*
X50366534Y-51461103D01*
X50341548Y-51491548D01*
X50311103Y-51516534D01*
X50276367Y-51535101D01*
X50238674Y-51546535D01*
X50193339Y-51551000D01*
X49356661Y-51551000D01*
X49311326Y-51546535D01*
X49273633Y-51535101D01*
X49238897Y-51516534D01*
X49208452Y-51491548D01*
X49183466Y-51461103D01*
X49164899Y-51426367D01*
X49153465Y-51388674D01*
X49149000Y-51343339D01*
X49149000Y-50256661D01*
X49153465Y-50211326D01*
X49164899Y-50173633D01*
X49183466Y-50138897D01*
X49208452Y-50108452D01*
X49238897Y-50083466D01*
X49273633Y-50064899D01*
X49311326Y-50053465D01*
X49356661Y-50049000D01*
X50193339Y-50049000D01*
X50238674Y-50053465D01*
X50238674Y-50053465D01*
G37*
G36*
X28902674Y-50053465D02*
G01*
X28940367Y-50064899D01*
X28975103Y-50083466D01*
X29005548Y-50108452D01*
X29030534Y-50138897D01*
X29049101Y-50173633D01*
X29060535Y-50211326D01*
X29065000Y-50256661D01*
X29065000Y-51343339D01*
X29060535Y-51388674D01*
X29049101Y-51426367D01*
X29030534Y-51461103D01*
X29005548Y-51491548D01*
X28975103Y-51516534D01*
X28940367Y-51535101D01*
X28902674Y-51546535D01*
X28857339Y-51551000D01*
X28020661Y-51551000D01*
X27975326Y-51546535D01*
X27937633Y-51535101D01*
X27902897Y-51516534D01*
X27872452Y-51491548D01*
X27847466Y-51461103D01*
X27828899Y-51426367D01*
X27817465Y-51388674D01*
X27813000Y-51343339D01*
X27813000Y-50256661D01*
X27817465Y-50211326D01*
X27828899Y-50173633D01*
X27847466Y-50138897D01*
X27872452Y-50108452D01*
X27902897Y-50083466D01*
X27937633Y-50064899D01*
X27975326Y-50053465D01*
X28020661Y-50049000D01*
X28857339Y-50049000D01*
X28902674Y-50053465D01*
X28902674Y-50053465D01*
G37*
G36*
X30952674Y-50053465D02*
G01*
X30990367Y-50064899D01*
X31025103Y-50083466D01*
X31055548Y-50108452D01*
X31080534Y-50138897D01*
X31099101Y-50173633D01*
X31110535Y-50211326D01*
X31115000Y-50256661D01*
X31115000Y-51343339D01*
X31110535Y-51388674D01*
X31099101Y-51426367D01*
X31080534Y-51461103D01*
X31055548Y-51491548D01*
X31025103Y-51516534D01*
X30990367Y-51535101D01*
X30952674Y-51546535D01*
X30907339Y-51551000D01*
X30070661Y-51551000D01*
X30025326Y-51546535D01*
X29987633Y-51535101D01*
X29952897Y-51516534D01*
X29922452Y-51491548D01*
X29897466Y-51461103D01*
X29878899Y-51426367D01*
X29867465Y-51388674D01*
X29863000Y-51343339D01*
X29863000Y-50256661D01*
X29867465Y-50211326D01*
X29878899Y-50173633D01*
X29897466Y-50138897D01*
X29922452Y-50108452D01*
X29952897Y-50083466D01*
X29987633Y-50064899D01*
X30025326Y-50053465D01*
X30070661Y-50049000D01*
X30907339Y-50049000D01*
X30952674Y-50053465D01*
X30952674Y-50053465D01*
G37*
G36*
X44414674Y-50053465D02*
G01*
X44452367Y-50064899D01*
X44487103Y-50083466D01*
X44517548Y-50108452D01*
X44542534Y-50138897D01*
X44561101Y-50173633D01*
X44572535Y-50211326D01*
X44577000Y-50256661D01*
X44577000Y-51343339D01*
X44572535Y-51388674D01*
X44561101Y-51426367D01*
X44542534Y-51461103D01*
X44517548Y-51491548D01*
X44487103Y-51516534D01*
X44452367Y-51535101D01*
X44414674Y-51546535D01*
X44369339Y-51551000D01*
X43532661Y-51551000D01*
X43487326Y-51546535D01*
X43449633Y-51535101D01*
X43414897Y-51516534D01*
X43384452Y-51491548D01*
X43359466Y-51461103D01*
X43340899Y-51426367D01*
X43329465Y-51388674D01*
X43325000Y-51343339D01*
X43325000Y-50256661D01*
X43329465Y-50211326D01*
X43340899Y-50173633D01*
X43359466Y-50138897D01*
X43384452Y-50108452D01*
X43414897Y-50083466D01*
X43449633Y-50064899D01*
X43487326Y-50053465D01*
X43532661Y-50049000D01*
X44369339Y-50049000D01*
X44414674Y-50053465D01*
X44414674Y-50053465D01*
G37*
G36*
X42364674Y-50053465D02*
G01*
X42402367Y-50064899D01*
X42437103Y-50083466D01*
X42467548Y-50108452D01*
X42492534Y-50138897D01*
X42511101Y-50173633D01*
X42522535Y-50211326D01*
X42527000Y-50256661D01*
X42527000Y-51343339D01*
X42522535Y-51388674D01*
X42511101Y-51426367D01*
X42492534Y-51461103D01*
X42467548Y-51491548D01*
X42437103Y-51516534D01*
X42402367Y-51535101D01*
X42364674Y-51546535D01*
X42319339Y-51551000D01*
X41482661Y-51551000D01*
X41437326Y-51546535D01*
X41399633Y-51535101D01*
X41364897Y-51516534D01*
X41334452Y-51491548D01*
X41309466Y-51461103D01*
X41290899Y-51426367D01*
X41279465Y-51388674D01*
X41275000Y-51343339D01*
X41275000Y-50256661D01*
X41279465Y-50211326D01*
X41290899Y-50173633D01*
X41309466Y-50138897D01*
X41334452Y-50108452D01*
X41364897Y-50083466D01*
X41399633Y-50064899D01*
X41437326Y-50053465D01*
X41482661Y-50049000D01*
X42319339Y-50049000D01*
X42364674Y-50053465D01*
X42364674Y-50053465D01*
G37*
G36*
X48478674Y-50053465D02*
G01*
X48516367Y-50064899D01*
X48551103Y-50083466D01*
X48581548Y-50108452D01*
X48606534Y-50138897D01*
X48625101Y-50173633D01*
X48636535Y-50211326D01*
X48641000Y-50256661D01*
X48641000Y-51343339D01*
X48636535Y-51388674D01*
X48625101Y-51426367D01*
X48606534Y-51461103D01*
X48581548Y-51491548D01*
X48551103Y-51516534D01*
X48516367Y-51535101D01*
X48478674Y-51546535D01*
X48433339Y-51551000D01*
X47596661Y-51551000D01*
X47551326Y-51546535D01*
X47513633Y-51535101D01*
X47478897Y-51516534D01*
X47448452Y-51491548D01*
X47423466Y-51461103D01*
X47404899Y-51426367D01*
X47393465Y-51388674D01*
X47389000Y-51343339D01*
X47389000Y-50256661D01*
X47393465Y-50211326D01*
X47404899Y-50173633D01*
X47423466Y-50138897D01*
X47448452Y-50108452D01*
X47478897Y-50083466D01*
X47513633Y-50064899D01*
X47551326Y-50053465D01*
X47596661Y-50049000D01*
X48433339Y-50049000D01*
X48478674Y-50053465D01*
X48478674Y-50053465D01*
G37*
G36*
X46428674Y-50053465D02*
G01*
X46466367Y-50064899D01*
X46501103Y-50083466D01*
X46531548Y-50108452D01*
X46556534Y-50138897D01*
X46575101Y-50173633D01*
X46586535Y-50211326D01*
X46591000Y-50256661D01*
X46591000Y-51343339D01*
X46586535Y-51388674D01*
X46575101Y-51426367D01*
X46556534Y-51461103D01*
X46531548Y-51491548D01*
X46501103Y-51516534D01*
X46466367Y-51535101D01*
X46428674Y-51546535D01*
X46383339Y-51551000D01*
X45546661Y-51551000D01*
X45501326Y-51546535D01*
X45463633Y-51535101D01*
X45428897Y-51516534D01*
X45398452Y-51491548D01*
X45373466Y-51461103D01*
X45354899Y-51426367D01*
X45343465Y-51388674D01*
X45339000Y-51343339D01*
X45339000Y-50256661D01*
X45343465Y-50211326D01*
X45354899Y-50173633D01*
X45373466Y-50138897D01*
X45398452Y-50108452D01*
X45428897Y-50083466D01*
X45463633Y-50064899D01*
X45501326Y-50053465D01*
X45546661Y-50049000D01*
X46383339Y-50049000D01*
X46428674Y-50053465D01*
X46428674Y-50053465D01*
G37*
G36*
X52288674Y-50053465D02*
G01*
X52326367Y-50064899D01*
X52361103Y-50083466D01*
X52391548Y-50108452D01*
X52416534Y-50138897D01*
X52435101Y-50173633D01*
X52446535Y-50211326D01*
X52451000Y-50256661D01*
X52451000Y-51343339D01*
X52446535Y-51388674D01*
X52435101Y-51426367D01*
X52416534Y-51461103D01*
X52391548Y-51491548D01*
X52361103Y-51516534D01*
X52326367Y-51535101D01*
X52288674Y-51546535D01*
X52243339Y-51551000D01*
X51406661Y-51551000D01*
X51361326Y-51546535D01*
X51323633Y-51535101D01*
X51288897Y-51516534D01*
X51258452Y-51491548D01*
X51233466Y-51461103D01*
X51214899Y-51426367D01*
X51203465Y-51388674D01*
X51199000Y-51343339D01*
X51199000Y-50256661D01*
X51203465Y-50211326D01*
X51214899Y-50173633D01*
X51233466Y-50138897D01*
X51258452Y-50108452D01*
X51288897Y-50083466D01*
X51323633Y-50064899D01*
X51361326Y-50053465D01*
X51406661Y-50049000D01*
X52243339Y-50049000D01*
X52288674Y-50053465D01*
X52288674Y-50053465D01*
G37*
G36*
X27004674Y-50178465D02*
G01*
X27042367Y-50189899D01*
X27077103Y-50208466D01*
X27107548Y-50233452D01*
X27132534Y-50263897D01*
X27151101Y-50298633D01*
X27162535Y-50336326D01*
X27167000Y-50381661D01*
X27167000Y-51218339D01*
X27162535Y-51263674D01*
X27151101Y-51301367D01*
X27132534Y-51336103D01*
X27107548Y-51366548D01*
X27077103Y-51391534D01*
X27042367Y-51410101D01*
X27004674Y-51421535D01*
X26959339Y-51426000D01*
X25872661Y-51426000D01*
X25827326Y-51421535D01*
X25789633Y-51410101D01*
X25754897Y-51391534D01*
X25724452Y-51366548D01*
X25699466Y-51336103D01*
X25680899Y-51301367D01*
X25669465Y-51263674D01*
X25665000Y-51218339D01*
X25665000Y-50381661D01*
X25669465Y-50336326D01*
X25680899Y-50298633D01*
X25699466Y-50263897D01*
X25724452Y-50233452D01*
X25754897Y-50208466D01*
X25789633Y-50189899D01*
X25827326Y-50178465D01*
X25872661Y-50174000D01*
X26959339Y-50174000D01*
X27004674Y-50178465D01*
X27004674Y-50178465D01*
G37*
G36*
X38740928Y-48695764D02*
G01*
X38762009Y-48702160D01*
X38781445Y-48712548D01*
X38798476Y-48726524D01*
X38812452Y-48743555D01*
X38822840Y-48762991D01*
X38829236Y-48784072D01*
X38832000Y-48812140D01*
X38832000Y-50625860D01*
X38829236Y-50653928D01*
X38822840Y-50675009D01*
X38812452Y-50694445D01*
X38798476Y-50711476D01*
X38781445Y-50725452D01*
X38762009Y-50735840D01*
X38740928Y-50742236D01*
X38712860Y-50745000D01*
X38249140Y-50745000D01*
X38221072Y-50742236D01*
X38199991Y-50735840D01*
X38180555Y-50725452D01*
X38163524Y-50711476D01*
X38149548Y-50694445D01*
X38139160Y-50675009D01*
X38132764Y-50653928D01*
X38130000Y-50625860D01*
X38130000Y-48812140D01*
X38132764Y-48784072D01*
X38139160Y-48762991D01*
X38149548Y-48743555D01*
X38163524Y-48726524D01*
X38180555Y-48712548D01*
X38199991Y-48702160D01*
X38221072Y-48695764D01*
X38249140Y-48693000D01*
X38712860Y-48693000D01*
X38740928Y-48695764D01*
X38740928Y-48695764D01*
G37*
G36*
X36200928Y-48695764D02*
G01*
X36222009Y-48702160D01*
X36241445Y-48712548D01*
X36258476Y-48726524D01*
X36272452Y-48743555D01*
X36282840Y-48762991D01*
X36289236Y-48784072D01*
X36292000Y-48812140D01*
X36292000Y-50625860D01*
X36289236Y-50653928D01*
X36282840Y-50675009D01*
X36272452Y-50694445D01*
X36258476Y-50711476D01*
X36241445Y-50725452D01*
X36222009Y-50735840D01*
X36200928Y-50742236D01*
X36172860Y-50745000D01*
X35709140Y-50745000D01*
X35681072Y-50742236D01*
X35659991Y-50735840D01*
X35640555Y-50725452D01*
X35623524Y-50711476D01*
X35609548Y-50694445D01*
X35599160Y-50675009D01*
X35592764Y-50653928D01*
X35590000Y-50625860D01*
X35590000Y-48812140D01*
X35592764Y-48784072D01*
X35599160Y-48762991D01*
X35609548Y-48743555D01*
X35623524Y-48726524D01*
X35640555Y-48712548D01*
X35659991Y-48702160D01*
X35681072Y-48695764D01*
X35709140Y-48693000D01*
X36172860Y-48693000D01*
X36200928Y-48695764D01*
X36200928Y-48695764D01*
G37*
G36*
X37470928Y-48695764D02*
G01*
X37492009Y-48702160D01*
X37511445Y-48712548D01*
X37528476Y-48726524D01*
X37542452Y-48743555D01*
X37552840Y-48762991D01*
X37559236Y-48784072D01*
X37562000Y-48812140D01*
X37562000Y-50625860D01*
X37559236Y-50653928D01*
X37552840Y-50675009D01*
X37542452Y-50694445D01*
X37528476Y-50711476D01*
X37511445Y-50725452D01*
X37492009Y-50735840D01*
X37470928Y-50742236D01*
X37442860Y-50745000D01*
X36979140Y-50745000D01*
X36951072Y-50742236D01*
X36929991Y-50735840D01*
X36910555Y-50725452D01*
X36893524Y-50711476D01*
X36879548Y-50694445D01*
X36869160Y-50675009D01*
X36862764Y-50653928D01*
X36860000Y-50625860D01*
X36860000Y-48812140D01*
X36862764Y-48784072D01*
X36869160Y-48762991D01*
X36879548Y-48743555D01*
X36893524Y-48726524D01*
X36910555Y-48712548D01*
X36929991Y-48702160D01*
X36951072Y-48695764D01*
X36979140Y-48693000D01*
X37442860Y-48693000D01*
X37470928Y-48695764D01*
X37470928Y-48695764D01*
G37*
G36*
X40010928Y-48695764D02*
G01*
X40032009Y-48702160D01*
X40051445Y-48712548D01*
X40068476Y-48726524D01*
X40082452Y-48743555D01*
X40092840Y-48762991D01*
X40099236Y-48784072D01*
X40102000Y-48812140D01*
X40102000Y-50625860D01*
X40099236Y-50653928D01*
X40092840Y-50675009D01*
X40082452Y-50694445D01*
X40068476Y-50711476D01*
X40051445Y-50725452D01*
X40032009Y-50735840D01*
X40010928Y-50742236D01*
X39982860Y-50745000D01*
X39519140Y-50745000D01*
X39491072Y-50742236D01*
X39469991Y-50735840D01*
X39450555Y-50725452D01*
X39433524Y-50711476D01*
X39419548Y-50694445D01*
X39409160Y-50675009D01*
X39402764Y-50653928D01*
X39400000Y-50625860D01*
X39400000Y-48812140D01*
X39402764Y-48784072D01*
X39409160Y-48762991D01*
X39419548Y-48743555D01*
X39433524Y-48726524D01*
X39450555Y-48712548D01*
X39469991Y-48702160D01*
X39491072Y-48695764D01*
X39519140Y-48693000D01*
X39982860Y-48693000D01*
X40010928Y-48695764D01*
X40010928Y-48695764D01*
G37*
G36*
X23224443Y-48635519D02*
G01*
X23290627Y-48642037D01*
X23460466Y-48693557D01*
X23460468Y-48693558D01*
X23476561Y-48702160D01*
X23616991Y-48777222D01*
X23646377Y-48801339D01*
X23754186Y-48889814D01*
X23837448Y-48991271D01*
X23866778Y-49027009D01*
X23950443Y-49183534D01*
X24001963Y-49353373D01*
X24019359Y-49530000D01*
X24001963Y-49706627D01*
X23950443Y-49876466D01*
X23866778Y-50032991D01*
X23849975Y-50053465D01*
X23754186Y-50170186D01*
X23652729Y-50253448D01*
X23616991Y-50282778D01*
X23587329Y-50298633D01*
X23506164Y-50342017D01*
X23460466Y-50366443D01*
X23290627Y-50417963D01*
X23234763Y-50423465D01*
X23158260Y-50431000D01*
X23069740Y-50431000D01*
X22993237Y-50423465D01*
X22937373Y-50417963D01*
X22767534Y-50366443D01*
X22721837Y-50342017D01*
X22640671Y-50298633D01*
X22611009Y-50282778D01*
X22575271Y-50253448D01*
X22473814Y-50170186D01*
X22378025Y-50053465D01*
X22361222Y-50032991D01*
X22277557Y-49876466D01*
X22226037Y-49706627D01*
X22208641Y-49530000D01*
X22226037Y-49353373D01*
X22277557Y-49183534D01*
X22361222Y-49027009D01*
X22390552Y-48991271D01*
X22473814Y-48889814D01*
X22581623Y-48801339D01*
X22611009Y-48777222D01*
X22751439Y-48702160D01*
X22767532Y-48693558D01*
X22767534Y-48693557D01*
X22937373Y-48642037D01*
X23003557Y-48635519D01*
X23069740Y-48629000D01*
X23158260Y-48629000D01*
X23224443Y-48635519D01*
X23224443Y-48635519D01*
G37*
G36*
X55990443Y-48127519D02*
G01*
X56056627Y-48134037D01*
X56226466Y-48185557D01*
X56382991Y-48269222D01*
X56414814Y-48295339D01*
X56520186Y-48381814D01*
X56581996Y-48457131D01*
X56632778Y-48519009D01*
X56716443Y-48675534D01*
X56767963Y-48845373D01*
X56785359Y-49022000D01*
X56767963Y-49198627D01*
X56716443Y-49368466D01*
X56632778Y-49524991D01*
X56628667Y-49530000D01*
X56520186Y-49662186D01*
X56418729Y-49745448D01*
X56382991Y-49774778D01*
X56226466Y-49858443D01*
X56056627Y-49909963D01*
X55990443Y-49916481D01*
X55924260Y-49923000D01*
X55835740Y-49923000D01*
X55769557Y-49916481D01*
X55703373Y-49909963D01*
X55533534Y-49858443D01*
X55377009Y-49774778D01*
X55341271Y-49745448D01*
X55239814Y-49662186D01*
X55131333Y-49530000D01*
X55127222Y-49524991D01*
X55043557Y-49368466D01*
X54992037Y-49198627D01*
X54974641Y-49022000D01*
X54992037Y-48845373D01*
X55043557Y-48675534D01*
X55127222Y-48519009D01*
X55178004Y-48457131D01*
X55239814Y-48381814D01*
X55345186Y-48295339D01*
X55377009Y-48269222D01*
X55533534Y-48185557D01*
X55703373Y-48134037D01*
X55769558Y-48127518D01*
X55835740Y-48121000D01*
X55924260Y-48121000D01*
X55990443Y-48127519D01*
X55990443Y-48127519D01*
G37*
G36*
X27004674Y-47393465D02*
G01*
X27042367Y-47404899D01*
X27077103Y-47423466D01*
X27107548Y-47448452D01*
X27132534Y-47478897D01*
X27151101Y-47513633D01*
X27162535Y-47551326D01*
X27167000Y-47596661D01*
X27167000Y-48433339D01*
X27162535Y-48478674D01*
X27151101Y-48516367D01*
X27132534Y-48551103D01*
X27107548Y-48581548D01*
X27077103Y-48606534D01*
X27042367Y-48625101D01*
X27004674Y-48636535D01*
X26959339Y-48641000D01*
X25872661Y-48641000D01*
X25827326Y-48636535D01*
X25789633Y-48625101D01*
X25754897Y-48606534D01*
X25724452Y-48581548D01*
X25699466Y-48551103D01*
X25680899Y-48516367D01*
X25669465Y-48478674D01*
X25665000Y-48433339D01*
X25665000Y-47596661D01*
X25669465Y-47551326D01*
X25680899Y-47513633D01*
X25699466Y-47478897D01*
X25724452Y-47448452D01*
X25754897Y-47423466D01*
X25789633Y-47404899D01*
X25827326Y-47393465D01*
X25872661Y-47389000D01*
X26959339Y-47389000D01*
X27004674Y-47393465D01*
X27004674Y-47393465D01*
G37*
G36*
X29156674Y-47005465D02*
G01*
X29194367Y-47016899D01*
X29229103Y-47035466D01*
X29259548Y-47060452D01*
X29284534Y-47090897D01*
X29303101Y-47125633D01*
X29314535Y-47163326D01*
X29319000Y-47208661D01*
X29319000Y-48295339D01*
X29314535Y-48340674D01*
X29303101Y-48378367D01*
X29284534Y-48413103D01*
X29259548Y-48443548D01*
X29229103Y-48468534D01*
X29194367Y-48487101D01*
X29156674Y-48498535D01*
X29111339Y-48503000D01*
X28274661Y-48503000D01*
X28229326Y-48498535D01*
X28191633Y-48487101D01*
X28156897Y-48468534D01*
X28126452Y-48443548D01*
X28101466Y-48413103D01*
X28082899Y-48378367D01*
X28071465Y-48340674D01*
X28067000Y-48295339D01*
X28067000Y-47208661D01*
X28071465Y-47163326D01*
X28082899Y-47125633D01*
X28101466Y-47090897D01*
X28126452Y-47060452D01*
X28156897Y-47035466D01*
X28191633Y-47016899D01*
X28229326Y-47005465D01*
X28274661Y-47001000D01*
X29111339Y-47001000D01*
X29156674Y-47005465D01*
X29156674Y-47005465D01*
G37*
G36*
X31206674Y-47005465D02*
G01*
X31244367Y-47016899D01*
X31279103Y-47035466D01*
X31309548Y-47060452D01*
X31334534Y-47090897D01*
X31353101Y-47125633D01*
X31364535Y-47163326D01*
X31369000Y-47208661D01*
X31369000Y-48295339D01*
X31364535Y-48340674D01*
X31353101Y-48378367D01*
X31334534Y-48413103D01*
X31309548Y-48443548D01*
X31279103Y-48468534D01*
X31244367Y-48487101D01*
X31206674Y-48498535D01*
X31161339Y-48503000D01*
X30324661Y-48503000D01*
X30279326Y-48498535D01*
X30241633Y-48487101D01*
X30206897Y-48468534D01*
X30176452Y-48443548D01*
X30151466Y-48413103D01*
X30132899Y-48378367D01*
X30121465Y-48340674D01*
X30117000Y-48295339D01*
X30117000Y-47208661D01*
X30121465Y-47163326D01*
X30132899Y-47125633D01*
X30151466Y-47090897D01*
X30176452Y-47060452D01*
X30206897Y-47035466D01*
X30241633Y-47016899D01*
X30279326Y-47005465D01*
X30324661Y-47001000D01*
X31161339Y-47001000D01*
X31206674Y-47005465D01*
X31206674Y-47005465D01*
G37*
G36*
X33354674Y-46885465D02*
G01*
X33392367Y-46896899D01*
X33427103Y-46915466D01*
X33457548Y-46940452D01*
X33482534Y-46970897D01*
X33501101Y-47005633D01*
X33512535Y-47043326D01*
X33517000Y-47088661D01*
X33517000Y-47925339D01*
X33512535Y-47970674D01*
X33501101Y-48008367D01*
X33482534Y-48043103D01*
X33457548Y-48073548D01*
X33427103Y-48098534D01*
X33392367Y-48117101D01*
X33354674Y-48128535D01*
X33309339Y-48133000D01*
X32222661Y-48133000D01*
X32177326Y-48128535D01*
X32139633Y-48117101D01*
X32104897Y-48098534D01*
X32074452Y-48073548D01*
X32049466Y-48043103D01*
X32030899Y-48008367D01*
X32019465Y-47970674D01*
X32015000Y-47925339D01*
X32015000Y-47088661D01*
X32019465Y-47043326D01*
X32030899Y-47005633D01*
X32049466Y-46970897D01*
X32074452Y-46940452D01*
X32104897Y-46915466D01*
X32139633Y-46896899D01*
X32177326Y-46885465D01*
X32222661Y-46881000D01*
X33309339Y-46881000D01*
X33354674Y-46885465D01*
X33354674Y-46885465D01*
G37*
G36*
X24015000Y-47891000D02*
G01*
X22213000Y-47891000D01*
X22213000Y-46089000D01*
X24015000Y-46089000D01*
X24015000Y-47891000D01*
X24015000Y-47891000D01*
G37*
G36*
X55990442Y-45587518D02*
G01*
X56056627Y-45594037D01*
X56226466Y-45645557D01*
X56226468Y-45645558D01*
X56303366Y-45686661D01*
X56382991Y-45729222D01*
X56401540Y-45744445D01*
X56520186Y-45841814D01*
X56603448Y-45943271D01*
X56632778Y-45979009D01*
X56716443Y-46135534D01*
X56767963Y-46305373D01*
X56785359Y-46482000D01*
X56767963Y-46658627D01*
X56716443Y-46828466D01*
X56632778Y-46984991D01*
X56618850Y-47001962D01*
X56520186Y-47122186D01*
X56418729Y-47205448D01*
X56382991Y-47234778D01*
X56226466Y-47318443D01*
X56056627Y-47369963D01*
X55990442Y-47376482D01*
X55924260Y-47383000D01*
X55835740Y-47383000D01*
X55769557Y-47376481D01*
X55703373Y-47369963D01*
X55533534Y-47318443D01*
X55377009Y-47234778D01*
X55341271Y-47205448D01*
X55239814Y-47122186D01*
X55141150Y-47001962D01*
X55127222Y-46984991D01*
X55043557Y-46828466D01*
X54992037Y-46658627D01*
X54974641Y-46482000D01*
X54992037Y-46305373D01*
X55043557Y-46135534D01*
X55127222Y-45979009D01*
X55156552Y-45943271D01*
X55239814Y-45841814D01*
X55358460Y-45744445D01*
X55377009Y-45729222D01*
X55456634Y-45686661D01*
X55533532Y-45645558D01*
X55533534Y-45645557D01*
X55703373Y-45594037D01*
X55769558Y-45587518D01*
X55835740Y-45581000D01*
X55924260Y-45581000D01*
X55990442Y-45587518D01*
X55990442Y-45587518D01*
G37*
G36*
X27004674Y-45343465D02*
G01*
X27042367Y-45354899D01*
X27077103Y-45373466D01*
X27107548Y-45398452D01*
X27132534Y-45428897D01*
X27151101Y-45463633D01*
X27162535Y-45501326D01*
X27167000Y-45546661D01*
X27167000Y-46383339D01*
X27162535Y-46428674D01*
X27151101Y-46466367D01*
X27132534Y-46501103D01*
X27107548Y-46531548D01*
X27077103Y-46556534D01*
X27042367Y-46575101D01*
X27004674Y-46586535D01*
X26959339Y-46591000D01*
X25872661Y-46591000D01*
X25827326Y-46586535D01*
X25789633Y-46575101D01*
X25754897Y-46556534D01*
X25724452Y-46531548D01*
X25699466Y-46501103D01*
X25680899Y-46466367D01*
X25669465Y-46428674D01*
X25665000Y-46383339D01*
X25665000Y-45546661D01*
X25669465Y-45501326D01*
X25680899Y-45463633D01*
X25699466Y-45428897D01*
X25724452Y-45398452D01*
X25754897Y-45373466D01*
X25789633Y-45354899D01*
X25827326Y-45343465D01*
X25872661Y-45339000D01*
X26959339Y-45339000D01*
X27004674Y-45343465D01*
X27004674Y-45343465D01*
G37*
G36*
X31206674Y-44973465D02*
G01*
X31244367Y-44984899D01*
X31279103Y-45003466D01*
X31309548Y-45028452D01*
X31334534Y-45058897D01*
X31353101Y-45093633D01*
X31364535Y-45131326D01*
X31369000Y-45176661D01*
X31369000Y-46263339D01*
X31364535Y-46308674D01*
X31353101Y-46346367D01*
X31334534Y-46381103D01*
X31309548Y-46411548D01*
X31279103Y-46436534D01*
X31244367Y-46455101D01*
X31206674Y-46466535D01*
X31161339Y-46471000D01*
X30324661Y-46471000D01*
X30279326Y-46466535D01*
X30241633Y-46455101D01*
X30206897Y-46436534D01*
X30176452Y-46411548D01*
X30151466Y-46381103D01*
X30132899Y-46346367D01*
X30121465Y-46308674D01*
X30117000Y-46263339D01*
X30117000Y-45176661D01*
X30121465Y-45131326D01*
X30132899Y-45093633D01*
X30151466Y-45058897D01*
X30176452Y-45028452D01*
X30206897Y-45003466D01*
X30241633Y-44984899D01*
X30279326Y-44973465D01*
X30324661Y-44969000D01*
X31161339Y-44969000D01*
X31206674Y-44973465D01*
X31206674Y-44973465D01*
G37*
G36*
X29156674Y-44973465D02*
G01*
X29194367Y-44984899D01*
X29229103Y-45003466D01*
X29259548Y-45028452D01*
X29284534Y-45058897D01*
X29303101Y-45093633D01*
X29314535Y-45131326D01*
X29319000Y-45176661D01*
X29319000Y-46263339D01*
X29314535Y-46308674D01*
X29303101Y-46346367D01*
X29284534Y-46381103D01*
X29259548Y-46411548D01*
X29229103Y-46436534D01*
X29194367Y-46455101D01*
X29156674Y-46466535D01*
X29111339Y-46471000D01*
X28274661Y-46471000D01*
X28229326Y-46466535D01*
X28191633Y-46455101D01*
X28156897Y-46436534D01*
X28126452Y-46411548D01*
X28101466Y-46381103D01*
X28082899Y-46346367D01*
X28071465Y-46308674D01*
X28067000Y-46263339D01*
X28067000Y-45176661D01*
X28071465Y-45131326D01*
X28082899Y-45093633D01*
X28101466Y-45058897D01*
X28126452Y-45028452D01*
X28156897Y-45003466D01*
X28191633Y-44984899D01*
X28229326Y-44973465D01*
X28274661Y-44969000D01*
X29111339Y-44969000D01*
X29156674Y-44973465D01*
X29156674Y-44973465D01*
G37*
G36*
X33354674Y-44835465D02*
G01*
X33392367Y-44846899D01*
X33427103Y-44865466D01*
X33457548Y-44890452D01*
X33482534Y-44920897D01*
X33501101Y-44955633D01*
X33512535Y-44993326D01*
X33517000Y-45038661D01*
X33517000Y-45875339D01*
X33512535Y-45920674D01*
X33501101Y-45958367D01*
X33482534Y-45993103D01*
X33457548Y-46023548D01*
X33427103Y-46048534D01*
X33392367Y-46067101D01*
X33354674Y-46078535D01*
X33309339Y-46083000D01*
X32222661Y-46083000D01*
X32177326Y-46078535D01*
X32139633Y-46067101D01*
X32104897Y-46048534D01*
X32074452Y-46023548D01*
X32049466Y-45993103D01*
X32030899Y-45958367D01*
X32019465Y-45920674D01*
X32015000Y-45875339D01*
X32015000Y-45038661D01*
X32019465Y-44993326D01*
X32030899Y-44955633D01*
X32049466Y-44920897D01*
X32074452Y-44890452D01*
X32104897Y-44865466D01*
X32139633Y-44846899D01*
X32177326Y-44835465D01*
X32222661Y-44831000D01*
X33309339Y-44831000D01*
X33354674Y-44835465D01*
X33354674Y-44835465D01*
G37*
G36*
X36200928Y-43745764D02*
G01*
X36222009Y-43752160D01*
X36241445Y-43762548D01*
X36258476Y-43776524D01*
X36272452Y-43793555D01*
X36282840Y-43812991D01*
X36289236Y-43834072D01*
X36292000Y-43862140D01*
X36292000Y-45675860D01*
X36289236Y-45703928D01*
X36282840Y-45725009D01*
X36272452Y-45744445D01*
X36258476Y-45761476D01*
X36241445Y-45775452D01*
X36222009Y-45785840D01*
X36200928Y-45792236D01*
X36172860Y-45795000D01*
X35709140Y-45795000D01*
X35681072Y-45792236D01*
X35659991Y-45785840D01*
X35640555Y-45775452D01*
X35623524Y-45761476D01*
X35609548Y-45744445D01*
X35599160Y-45725009D01*
X35592764Y-45703928D01*
X35590000Y-45675860D01*
X35590000Y-43862140D01*
X35592764Y-43834072D01*
X35599160Y-43812991D01*
X35609548Y-43793555D01*
X35623524Y-43776524D01*
X35640555Y-43762548D01*
X35659991Y-43752160D01*
X35681072Y-43745764D01*
X35709140Y-43743000D01*
X36172860Y-43743000D01*
X36200928Y-43745764D01*
X36200928Y-43745764D01*
G37*
G36*
X37470928Y-43745764D02*
G01*
X37492009Y-43752160D01*
X37511445Y-43762548D01*
X37528476Y-43776524D01*
X37542452Y-43793555D01*
X37552840Y-43812991D01*
X37559236Y-43834072D01*
X37562000Y-43862140D01*
X37562000Y-45675860D01*
X37559236Y-45703928D01*
X37552840Y-45725009D01*
X37542452Y-45744445D01*
X37528476Y-45761476D01*
X37511445Y-45775452D01*
X37492009Y-45785840D01*
X37470928Y-45792236D01*
X37442860Y-45795000D01*
X36979140Y-45795000D01*
X36951072Y-45792236D01*
X36929991Y-45785840D01*
X36910555Y-45775452D01*
X36893524Y-45761476D01*
X36879548Y-45744445D01*
X36869160Y-45725009D01*
X36862764Y-45703928D01*
X36860000Y-45675860D01*
X36860000Y-43862140D01*
X36862764Y-43834072D01*
X36869160Y-43812991D01*
X36879548Y-43793555D01*
X36893524Y-43776524D01*
X36910555Y-43762548D01*
X36929991Y-43752160D01*
X36951072Y-43745764D01*
X36979140Y-43743000D01*
X37442860Y-43743000D01*
X37470928Y-43745764D01*
X37470928Y-43745764D01*
G37*
G36*
X38740928Y-43745764D02*
G01*
X38762009Y-43752160D01*
X38781445Y-43762548D01*
X38798476Y-43776524D01*
X38812452Y-43793555D01*
X38822840Y-43812991D01*
X38829236Y-43834072D01*
X38832000Y-43862140D01*
X38832000Y-45675860D01*
X38829236Y-45703928D01*
X38822840Y-45725009D01*
X38812452Y-45744445D01*
X38798476Y-45761476D01*
X38781445Y-45775452D01*
X38762009Y-45785840D01*
X38740928Y-45792236D01*
X38712860Y-45795000D01*
X38249140Y-45795000D01*
X38221072Y-45792236D01*
X38199991Y-45785840D01*
X38180555Y-45775452D01*
X38163524Y-45761476D01*
X38149548Y-45744445D01*
X38139160Y-45725009D01*
X38132764Y-45703928D01*
X38130000Y-45675860D01*
X38130000Y-43862140D01*
X38132764Y-43834072D01*
X38139160Y-43812991D01*
X38149548Y-43793555D01*
X38163524Y-43776524D01*
X38180555Y-43762548D01*
X38199991Y-43752160D01*
X38221072Y-43745764D01*
X38249140Y-43743000D01*
X38712860Y-43743000D01*
X38740928Y-43745764D01*
X38740928Y-43745764D01*
G37*
G36*
X40010928Y-43745764D02*
G01*
X40032009Y-43752160D01*
X40051445Y-43762548D01*
X40068476Y-43776524D01*
X40082452Y-43793555D01*
X40092840Y-43812991D01*
X40099236Y-43834072D01*
X40102000Y-43862140D01*
X40102000Y-45675860D01*
X40099236Y-45703928D01*
X40092840Y-45725009D01*
X40082452Y-45744445D01*
X40068476Y-45761476D01*
X40051445Y-45775452D01*
X40032009Y-45785840D01*
X40010928Y-45792236D01*
X39982860Y-45795000D01*
X39519140Y-45795000D01*
X39491072Y-45792236D01*
X39469991Y-45785840D01*
X39450555Y-45775452D01*
X39433524Y-45761476D01*
X39419548Y-45744445D01*
X39409160Y-45725009D01*
X39402764Y-45703928D01*
X39400000Y-45675860D01*
X39400000Y-43862140D01*
X39402764Y-43834072D01*
X39409160Y-43812991D01*
X39419548Y-43793555D01*
X39433524Y-43776524D01*
X39450555Y-43762548D01*
X39469991Y-43752160D01*
X39491072Y-43745764D01*
X39519140Y-43743000D01*
X39982860Y-43743000D01*
X40010928Y-43745764D01*
X40010928Y-43745764D01*
G37*
G36*
X56781000Y-44843000D02*
G01*
X54979000Y-44843000D01*
X54979000Y-43041000D01*
X56781000Y-43041000D01*
X56781000Y-44843000D01*
X56781000Y-44843000D01*
G37*
G36*
X51254674Y-42687465D02*
G01*
X51292367Y-42698899D01*
X51327103Y-42717466D01*
X51357548Y-42742452D01*
X51382534Y-42772897D01*
X51401101Y-42807633D01*
X51412535Y-42845326D01*
X51417000Y-42890661D01*
X51417000Y-43977339D01*
X51412535Y-44022674D01*
X51401101Y-44060367D01*
X51382534Y-44095103D01*
X51357548Y-44125548D01*
X51327103Y-44150534D01*
X51292367Y-44169101D01*
X51254674Y-44180535D01*
X51209339Y-44185000D01*
X50372661Y-44185000D01*
X50327326Y-44180535D01*
X50289633Y-44169101D01*
X50254897Y-44150534D01*
X50224452Y-44125548D01*
X50199466Y-44095103D01*
X50180899Y-44060367D01*
X50169465Y-44022674D01*
X50165000Y-43977339D01*
X50165000Y-42890661D01*
X50169465Y-42845326D01*
X50180899Y-42807633D01*
X50199466Y-42772897D01*
X50224452Y-42742452D01*
X50254897Y-42717466D01*
X50289633Y-42698899D01*
X50327326Y-42687465D01*
X50372661Y-42683000D01*
X51209339Y-42683000D01*
X51254674Y-42687465D01*
X51254674Y-42687465D01*
G37*
G36*
X49240674Y-42687465D02*
G01*
X49278367Y-42698899D01*
X49313103Y-42717466D01*
X49343548Y-42742452D01*
X49368534Y-42772897D01*
X49387101Y-42807633D01*
X49398535Y-42845326D01*
X49403000Y-42890661D01*
X49403000Y-43977339D01*
X49398535Y-44022674D01*
X49387101Y-44060367D01*
X49368534Y-44095103D01*
X49343548Y-44125548D01*
X49313103Y-44150534D01*
X49278367Y-44169101D01*
X49240674Y-44180535D01*
X49195339Y-44185000D01*
X48358661Y-44185000D01*
X48313326Y-44180535D01*
X48275633Y-44169101D01*
X48240897Y-44150534D01*
X48210452Y-44125548D01*
X48185466Y-44095103D01*
X48166899Y-44060367D01*
X48155465Y-44022674D01*
X48151000Y-43977339D01*
X48151000Y-42890661D01*
X48155465Y-42845326D01*
X48166899Y-42807633D01*
X48185466Y-42772897D01*
X48210452Y-42742452D01*
X48240897Y-42717466D01*
X48275633Y-42698899D01*
X48313326Y-42687465D01*
X48358661Y-42683000D01*
X49195339Y-42683000D01*
X49240674Y-42687465D01*
X49240674Y-42687465D01*
G37*
G36*
X47190674Y-42687465D02*
G01*
X47228367Y-42698899D01*
X47263103Y-42717466D01*
X47293548Y-42742452D01*
X47318534Y-42772897D01*
X47337101Y-42807633D01*
X47348535Y-42845326D01*
X47353000Y-42890661D01*
X47353000Y-43977339D01*
X47348535Y-44022674D01*
X47337101Y-44060367D01*
X47318534Y-44095103D01*
X47293548Y-44125548D01*
X47263103Y-44150534D01*
X47228367Y-44169101D01*
X47190674Y-44180535D01*
X47145339Y-44185000D01*
X46308661Y-44185000D01*
X46263326Y-44180535D01*
X46225633Y-44169101D01*
X46190897Y-44150534D01*
X46160452Y-44125548D01*
X46135466Y-44095103D01*
X46116899Y-44060367D01*
X46105465Y-44022674D01*
X46101000Y-43977339D01*
X46101000Y-42890661D01*
X46105465Y-42845326D01*
X46116899Y-42807633D01*
X46135466Y-42772897D01*
X46160452Y-42742452D01*
X46190897Y-42717466D01*
X46225633Y-42698899D01*
X46263326Y-42687465D01*
X46308661Y-42683000D01*
X47145339Y-42683000D01*
X47190674Y-42687465D01*
X47190674Y-42687465D01*
G37*
G36*
X45176674Y-42687465D02*
G01*
X45214367Y-42698899D01*
X45249103Y-42717466D01*
X45279548Y-42742452D01*
X45304534Y-42772897D01*
X45323101Y-42807633D01*
X45334535Y-42845326D01*
X45339000Y-42890661D01*
X45339000Y-43977339D01*
X45334535Y-44022674D01*
X45323101Y-44060367D01*
X45304534Y-44095103D01*
X45279548Y-44125548D01*
X45249103Y-44150534D01*
X45214367Y-44169101D01*
X45176674Y-44180535D01*
X45131339Y-44185000D01*
X44294661Y-44185000D01*
X44249326Y-44180535D01*
X44211633Y-44169101D01*
X44176897Y-44150534D01*
X44146452Y-44125548D01*
X44121466Y-44095103D01*
X44102899Y-44060367D01*
X44091465Y-44022674D01*
X44087000Y-43977339D01*
X44087000Y-42890661D01*
X44091465Y-42845326D01*
X44102899Y-42807633D01*
X44121466Y-42772897D01*
X44146452Y-42742452D01*
X44176897Y-42717466D01*
X44211633Y-42698899D01*
X44249326Y-42687465D01*
X44294661Y-42683000D01*
X45131339Y-42683000D01*
X45176674Y-42687465D01*
X45176674Y-42687465D01*
G37*
G36*
X53304674Y-42687465D02*
G01*
X53342367Y-42698899D01*
X53377103Y-42717466D01*
X53407548Y-42742452D01*
X53432534Y-42772897D01*
X53451101Y-42807633D01*
X53462535Y-42845326D01*
X53467000Y-42890661D01*
X53467000Y-43977339D01*
X53462535Y-44022674D01*
X53451101Y-44060367D01*
X53432534Y-44095103D01*
X53407548Y-44125548D01*
X53377103Y-44150534D01*
X53342367Y-44169101D01*
X53304674Y-44180535D01*
X53259339Y-44185000D01*
X52422661Y-44185000D01*
X52377326Y-44180535D01*
X52339633Y-44169101D01*
X52304897Y-44150534D01*
X52274452Y-44125548D01*
X52249466Y-44095103D01*
X52230899Y-44060367D01*
X52219465Y-44022674D01*
X52215000Y-43977339D01*
X52215000Y-42890661D01*
X52219465Y-42845326D01*
X52230899Y-42807633D01*
X52249466Y-42772897D01*
X52274452Y-42742452D01*
X52304897Y-42717466D01*
X52339633Y-42698899D01*
X52377326Y-42687465D01*
X52422661Y-42683000D01*
X53259339Y-42683000D01*
X53304674Y-42687465D01*
X53304674Y-42687465D01*
G37*
G36*
X43126674Y-42687465D02*
G01*
X43164367Y-42698899D01*
X43199103Y-42717466D01*
X43229548Y-42742452D01*
X43254534Y-42772897D01*
X43273101Y-42807633D01*
X43284535Y-42845326D01*
X43289000Y-42890661D01*
X43289000Y-43977339D01*
X43284535Y-44022674D01*
X43273101Y-44060367D01*
X43254534Y-44095103D01*
X43229548Y-44125548D01*
X43199103Y-44150534D01*
X43164367Y-44169101D01*
X43126674Y-44180535D01*
X43081339Y-44185000D01*
X42244661Y-44185000D01*
X42199326Y-44180535D01*
X42161633Y-44169101D01*
X42126897Y-44150534D01*
X42096452Y-44125548D01*
X42071466Y-44095103D01*
X42052899Y-44060367D01*
X42041465Y-44022674D01*
X42037000Y-43977339D01*
X42037000Y-42890661D01*
X42041465Y-42845326D01*
X42052899Y-42807633D01*
X42071466Y-42772897D01*
X42096452Y-42742452D01*
X42126897Y-42717466D01*
X42161633Y-42698899D01*
X42199326Y-42687465D01*
X42244661Y-42683000D01*
X43081339Y-42683000D01*
X43126674Y-42687465D01*
X43126674Y-42687465D01*
G37*
G36*
X40858674Y-41163465D02*
G01*
X40896367Y-41174899D01*
X40931103Y-41193466D01*
X40961548Y-41218452D01*
X40986534Y-41248897D01*
X41005101Y-41283633D01*
X41016535Y-41321326D01*
X41021000Y-41366661D01*
X41021000Y-42453339D01*
X41016535Y-42498674D01*
X41005101Y-42536367D01*
X40986534Y-42571103D01*
X40961548Y-42601548D01*
X40931103Y-42626534D01*
X40896367Y-42645101D01*
X40858674Y-42656535D01*
X40813339Y-42661000D01*
X39976661Y-42661000D01*
X39931326Y-42656535D01*
X39893633Y-42645101D01*
X39858897Y-42626534D01*
X39828452Y-42601548D01*
X39803466Y-42571103D01*
X39784899Y-42536367D01*
X39773465Y-42498674D01*
X39769000Y-42453339D01*
X39769000Y-41366661D01*
X39773465Y-41321326D01*
X39784899Y-41283633D01*
X39803466Y-41248897D01*
X39828452Y-41218452D01*
X39858897Y-41193466D01*
X39893633Y-41174899D01*
X39931326Y-41163465D01*
X39976661Y-41159000D01*
X40813339Y-41159000D01*
X40858674Y-41163465D01*
X40858674Y-41163465D01*
G37*
G36*
X38808674Y-41163465D02*
G01*
X38846367Y-41174899D01*
X38881103Y-41193466D01*
X38911548Y-41218452D01*
X38936534Y-41248897D01*
X38955101Y-41283633D01*
X38966535Y-41321326D01*
X38971000Y-41366661D01*
X38971000Y-42453339D01*
X38966535Y-42498674D01*
X38955101Y-42536367D01*
X38936534Y-42571103D01*
X38911548Y-42601548D01*
X38881103Y-42626534D01*
X38846367Y-42645101D01*
X38808674Y-42656535D01*
X38763339Y-42661000D01*
X37926661Y-42661000D01*
X37881326Y-42656535D01*
X37843633Y-42645101D01*
X37808897Y-42626534D01*
X37778452Y-42601548D01*
X37753466Y-42571103D01*
X37734899Y-42536367D01*
X37723465Y-42498674D01*
X37719000Y-42453339D01*
X37719000Y-41366661D01*
X37723465Y-41321326D01*
X37734899Y-41283633D01*
X37753466Y-41248897D01*
X37778452Y-41218452D01*
X37808897Y-41193466D01*
X37843633Y-41174899D01*
X37881326Y-41163465D01*
X37926661Y-41159000D01*
X38763339Y-41159000D01*
X38808674Y-41163465D01*
X38808674Y-41163465D01*
G37*
G36*
X23224442Y-40253518D02*
G01*
X23290627Y-40260037D01*
X23460466Y-40311557D01*
X23616991Y-40395222D01*
X23652729Y-40424552D01*
X23754186Y-40507814D01*
X23810857Y-40576869D01*
X23866778Y-40645009D01*
X23950443Y-40801534D01*
X24001963Y-40971373D01*
X24019359Y-41148000D01*
X24001963Y-41324627D01*
X23950443Y-41494466D01*
X23866778Y-41650991D01*
X23837448Y-41686729D01*
X23754186Y-41788186D01*
X23652729Y-41871448D01*
X23616991Y-41900778D01*
X23460466Y-41984443D01*
X23290627Y-42035963D01*
X23224442Y-42042482D01*
X23158260Y-42049000D01*
X23069740Y-42049000D01*
X23003558Y-42042482D01*
X22937373Y-42035963D01*
X22767534Y-41984443D01*
X22611009Y-41900778D01*
X22575271Y-41871448D01*
X22473814Y-41788186D01*
X22390552Y-41686729D01*
X22361222Y-41650991D01*
X22277557Y-41494466D01*
X22226037Y-41324627D01*
X22208641Y-41148000D01*
X22226037Y-40971373D01*
X22277557Y-40801534D01*
X22361222Y-40645009D01*
X22417143Y-40576869D01*
X22473814Y-40507814D01*
X22575271Y-40424552D01*
X22611009Y-40395222D01*
X22767534Y-40311557D01*
X22937373Y-40260037D01*
X23003558Y-40253518D01*
X23069740Y-40247000D01*
X23158260Y-40247000D01*
X23224442Y-40253518D01*
X23224442Y-40253518D01*
G37*
G36*
X46054674Y-40535465D02*
G01*
X46092367Y-40546899D01*
X46127103Y-40565466D01*
X46157548Y-40590452D01*
X46182534Y-40620897D01*
X46201101Y-40655633D01*
X46212535Y-40693326D01*
X46217000Y-40738661D01*
X46217000Y-41575339D01*
X46212535Y-41620674D01*
X46201101Y-41658367D01*
X46182534Y-41693103D01*
X46157548Y-41723548D01*
X46127103Y-41748534D01*
X46092367Y-41767101D01*
X46054674Y-41778535D01*
X46009339Y-41783000D01*
X44922661Y-41783000D01*
X44877326Y-41778535D01*
X44839633Y-41767101D01*
X44804897Y-41748534D01*
X44774452Y-41723548D01*
X44749466Y-41693103D01*
X44730899Y-41658367D01*
X44719465Y-41620674D01*
X44715000Y-41575339D01*
X44715000Y-40738661D01*
X44719465Y-40693326D01*
X44730899Y-40655633D01*
X44749466Y-40620897D01*
X44774452Y-40590452D01*
X44804897Y-40565466D01*
X44839633Y-40546899D01*
X44877326Y-40535465D01*
X44922661Y-40531000D01*
X46009339Y-40531000D01*
X46054674Y-40535465D01*
X46054674Y-40535465D01*
G37*
G36*
X48340674Y-40535465D02*
G01*
X48378367Y-40546899D01*
X48413103Y-40565466D01*
X48443548Y-40590452D01*
X48468534Y-40620897D01*
X48487101Y-40655633D01*
X48498535Y-40693326D01*
X48503000Y-40738661D01*
X48503000Y-41575339D01*
X48498535Y-41620674D01*
X48487101Y-41658367D01*
X48468534Y-41693103D01*
X48443548Y-41723548D01*
X48413103Y-41748534D01*
X48378367Y-41767101D01*
X48340674Y-41778535D01*
X48295339Y-41783000D01*
X47208661Y-41783000D01*
X47163326Y-41778535D01*
X47125633Y-41767101D01*
X47090897Y-41748534D01*
X47060452Y-41723548D01*
X47035466Y-41693103D01*
X47016899Y-41658367D01*
X47005465Y-41620674D01*
X47001000Y-41575339D01*
X47001000Y-40738661D01*
X47005465Y-40693326D01*
X47016899Y-40655633D01*
X47035466Y-40620897D01*
X47060452Y-40590452D01*
X47090897Y-40565466D01*
X47125633Y-40546899D01*
X47163326Y-40535465D01*
X47208661Y-40531000D01*
X48295339Y-40531000D01*
X48340674Y-40535465D01*
X48340674Y-40535465D01*
G37*
G36*
X27766674Y-40535465D02*
G01*
X27804367Y-40546899D01*
X27839103Y-40565466D01*
X27869548Y-40590452D01*
X27894534Y-40620897D01*
X27913101Y-40655633D01*
X27924535Y-40693326D01*
X27929000Y-40738661D01*
X27929000Y-41575339D01*
X27924535Y-41620674D01*
X27913101Y-41658367D01*
X27894534Y-41693103D01*
X27869548Y-41723548D01*
X27839103Y-41748534D01*
X27804367Y-41767101D01*
X27766674Y-41778535D01*
X27721339Y-41783000D01*
X26634661Y-41783000D01*
X26589326Y-41778535D01*
X26551633Y-41767101D01*
X26516897Y-41748534D01*
X26486452Y-41723548D01*
X26461466Y-41693103D01*
X26442899Y-41658367D01*
X26431465Y-41620674D01*
X26427000Y-41575339D01*
X26427000Y-40738661D01*
X26431465Y-40693326D01*
X26442899Y-40655633D01*
X26461466Y-40620897D01*
X26486452Y-40590452D01*
X26516897Y-40565466D01*
X26551633Y-40546899D01*
X26589326Y-40535465D01*
X26634661Y-40531000D01*
X27721339Y-40531000D01*
X27766674Y-40535465D01*
X27766674Y-40535465D01*
G37*
G36*
X43514674Y-40535465D02*
G01*
X43552367Y-40546899D01*
X43587103Y-40565466D01*
X43617548Y-40590452D01*
X43642534Y-40620897D01*
X43661101Y-40655633D01*
X43672535Y-40693326D01*
X43677000Y-40738661D01*
X43677000Y-41575339D01*
X43672535Y-41620674D01*
X43661101Y-41658367D01*
X43642534Y-41693103D01*
X43617548Y-41723548D01*
X43587103Y-41748534D01*
X43552367Y-41767101D01*
X43514674Y-41778535D01*
X43469339Y-41783000D01*
X42382661Y-41783000D01*
X42337326Y-41778535D01*
X42299633Y-41767101D01*
X42264897Y-41748534D01*
X42234452Y-41723548D01*
X42209466Y-41693103D01*
X42190899Y-41658367D01*
X42179465Y-41620674D01*
X42175000Y-41575339D01*
X42175000Y-40738661D01*
X42179465Y-40693326D01*
X42190899Y-40655633D01*
X42209466Y-40620897D01*
X42234452Y-40590452D01*
X42264897Y-40565466D01*
X42299633Y-40546899D01*
X42337326Y-40535465D01*
X42382661Y-40531000D01*
X43469339Y-40531000D01*
X43514674Y-40535465D01*
X43514674Y-40535465D01*
G37*
G36*
X52912674Y-40535465D02*
G01*
X52950367Y-40546899D01*
X52985103Y-40565466D01*
X53015548Y-40590452D01*
X53040534Y-40620897D01*
X53059101Y-40655633D01*
X53070535Y-40693326D01*
X53075000Y-40738661D01*
X53075000Y-41575339D01*
X53070535Y-41620674D01*
X53059101Y-41658367D01*
X53040534Y-41693103D01*
X53015548Y-41723548D01*
X52985103Y-41748534D01*
X52950367Y-41767101D01*
X52912674Y-41778535D01*
X52867339Y-41783000D01*
X51780661Y-41783000D01*
X51735326Y-41778535D01*
X51697633Y-41767101D01*
X51662897Y-41748534D01*
X51632452Y-41723548D01*
X51607466Y-41693103D01*
X51588899Y-41658367D01*
X51577465Y-41620674D01*
X51573000Y-41575339D01*
X51573000Y-40738661D01*
X51577465Y-40693326D01*
X51588899Y-40655633D01*
X51607466Y-40620897D01*
X51632452Y-40590452D01*
X51662897Y-40565466D01*
X51697633Y-40546899D01*
X51735326Y-40535465D01*
X51780661Y-40531000D01*
X52867339Y-40531000D01*
X52912674Y-40535465D01*
X52912674Y-40535465D01*
G37*
G36*
X50626674Y-40535465D02*
G01*
X50664367Y-40546899D01*
X50699103Y-40565466D01*
X50729548Y-40590452D01*
X50754534Y-40620897D01*
X50773101Y-40655633D01*
X50784535Y-40693326D01*
X50789000Y-40738661D01*
X50789000Y-41575339D01*
X50784535Y-41620674D01*
X50773101Y-41658367D01*
X50754534Y-41693103D01*
X50729548Y-41723548D01*
X50699103Y-41748534D01*
X50664367Y-41767101D01*
X50626674Y-41778535D01*
X50581339Y-41783000D01*
X49494661Y-41783000D01*
X49449326Y-41778535D01*
X49411633Y-41767101D01*
X49376897Y-41748534D01*
X49346452Y-41723548D01*
X49321466Y-41693103D01*
X49302899Y-41658367D01*
X49291465Y-41620674D01*
X49287000Y-41575339D01*
X49287000Y-40738661D01*
X49291465Y-40693326D01*
X49302899Y-40655633D01*
X49321466Y-40620897D01*
X49346452Y-40590452D01*
X49376897Y-40565466D01*
X49411633Y-40546899D01*
X49449326Y-40535465D01*
X49494661Y-40531000D01*
X50581339Y-40531000D01*
X50626674Y-40535465D01*
X50626674Y-40535465D01*
G37*
G36*
X55385562Y-40098181D02*
G01*
X55420481Y-40108774D01*
X55452663Y-40125976D01*
X55480873Y-40149127D01*
X55504024Y-40177337D01*
X55521226Y-40209519D01*
X55531819Y-40244438D01*
X55536000Y-40286895D01*
X55536000Y-41428105D01*
X55531819Y-41470562D01*
X55521226Y-41505481D01*
X55504024Y-41537663D01*
X55480873Y-41565873D01*
X55452663Y-41589024D01*
X55420481Y-41606226D01*
X55385562Y-41616819D01*
X55343105Y-41621000D01*
X53876895Y-41621000D01*
X53834438Y-41616819D01*
X53799519Y-41606226D01*
X53767337Y-41589024D01*
X53739127Y-41565873D01*
X53715976Y-41537663D01*
X53698774Y-41505481D01*
X53688181Y-41470562D01*
X53684000Y-41428105D01*
X53684000Y-40286895D01*
X53688181Y-40244438D01*
X53698774Y-40209519D01*
X53715976Y-40177337D01*
X53739127Y-40149127D01*
X53767337Y-40125976D01*
X53799519Y-40108774D01*
X53834438Y-40098181D01*
X53876895Y-40094000D01*
X55343105Y-40094000D01*
X55385562Y-40098181D01*
X55385562Y-40098181D01*
G37*
G36*
X35132674Y-40281465D02*
G01*
X35170367Y-40292899D01*
X35205103Y-40311466D01*
X35235548Y-40336452D01*
X35260534Y-40366897D01*
X35279101Y-40401633D01*
X35290535Y-40439326D01*
X35295000Y-40484661D01*
X35295000Y-41321339D01*
X35290535Y-41366674D01*
X35279101Y-41404367D01*
X35260534Y-41439103D01*
X35235548Y-41469548D01*
X35205103Y-41494534D01*
X35170367Y-41513101D01*
X35132674Y-41524535D01*
X35087339Y-41529000D01*
X34000661Y-41529000D01*
X33955326Y-41524535D01*
X33917633Y-41513101D01*
X33882897Y-41494534D01*
X33852452Y-41469548D01*
X33827466Y-41439103D01*
X33808899Y-41404367D01*
X33797465Y-41366674D01*
X33793000Y-41321339D01*
X33793000Y-40484661D01*
X33797465Y-40439326D01*
X33808899Y-40401633D01*
X33827466Y-40366897D01*
X33852452Y-40336452D01*
X33882897Y-40311466D01*
X33917633Y-40292899D01*
X33955326Y-40281465D01*
X34000661Y-40277000D01*
X35087339Y-40277000D01*
X35132674Y-40281465D01*
X35132674Y-40281465D01*
G37*
G36*
X38808674Y-38623465D02*
G01*
X38846367Y-38634899D01*
X38881103Y-38653466D01*
X38911548Y-38678452D01*
X38936534Y-38708897D01*
X38955101Y-38743633D01*
X38966535Y-38781326D01*
X38971000Y-38826661D01*
X38971000Y-39913339D01*
X38966535Y-39958674D01*
X38955101Y-39996367D01*
X38936534Y-40031103D01*
X38911548Y-40061548D01*
X38881103Y-40086534D01*
X38846367Y-40105101D01*
X38808674Y-40116535D01*
X38763339Y-40121000D01*
X37926661Y-40121000D01*
X37881326Y-40116535D01*
X37843633Y-40105101D01*
X37808897Y-40086534D01*
X37778452Y-40061548D01*
X37753466Y-40031103D01*
X37734899Y-39996367D01*
X37723465Y-39958674D01*
X37719000Y-39913339D01*
X37719000Y-38826661D01*
X37723465Y-38781326D01*
X37734899Y-38743633D01*
X37753466Y-38708897D01*
X37778452Y-38678452D01*
X37808897Y-38653466D01*
X37843633Y-38634899D01*
X37881326Y-38623465D01*
X37926661Y-38619000D01*
X38763339Y-38619000D01*
X38808674Y-38623465D01*
X38808674Y-38623465D01*
G37*
G36*
X40858674Y-38623465D02*
G01*
X40896367Y-38634899D01*
X40931103Y-38653466D01*
X40961548Y-38678452D01*
X40986534Y-38708897D01*
X41005101Y-38743633D01*
X41016535Y-38781326D01*
X41021000Y-38826661D01*
X41021000Y-39913339D01*
X41016535Y-39958674D01*
X41005101Y-39996367D01*
X40986534Y-40031103D01*
X40961548Y-40061548D01*
X40931103Y-40086534D01*
X40896367Y-40105101D01*
X40858674Y-40116535D01*
X40813339Y-40121000D01*
X39976661Y-40121000D01*
X39931326Y-40116535D01*
X39893633Y-40105101D01*
X39858897Y-40086534D01*
X39828452Y-40061548D01*
X39803466Y-40031103D01*
X39784899Y-39996367D01*
X39773465Y-39958674D01*
X39769000Y-39913339D01*
X39769000Y-38826661D01*
X39773465Y-38781326D01*
X39784899Y-38743633D01*
X39803466Y-38708897D01*
X39828452Y-38678452D01*
X39858897Y-38653466D01*
X39893633Y-38634899D01*
X39931326Y-38623465D01*
X39976661Y-38619000D01*
X40813339Y-38619000D01*
X40858674Y-38623465D01*
X40858674Y-38623465D01*
G37*
G36*
X46054674Y-38485465D02*
G01*
X46092367Y-38496899D01*
X46127103Y-38515466D01*
X46157548Y-38540452D01*
X46182534Y-38570897D01*
X46201101Y-38605633D01*
X46212535Y-38643326D01*
X46217000Y-38688661D01*
X46217000Y-39525339D01*
X46212535Y-39570674D01*
X46201101Y-39608367D01*
X46182534Y-39643103D01*
X46157548Y-39673548D01*
X46127103Y-39698534D01*
X46092367Y-39717101D01*
X46054674Y-39728535D01*
X46009339Y-39733000D01*
X44922661Y-39733000D01*
X44877326Y-39728535D01*
X44839633Y-39717101D01*
X44804897Y-39698534D01*
X44774452Y-39673548D01*
X44749466Y-39643103D01*
X44730899Y-39608367D01*
X44719465Y-39570674D01*
X44715000Y-39525339D01*
X44715000Y-38688661D01*
X44719465Y-38643326D01*
X44730899Y-38605633D01*
X44749466Y-38570897D01*
X44774452Y-38540452D01*
X44804897Y-38515466D01*
X44839633Y-38496899D01*
X44877326Y-38485465D01*
X44922661Y-38481000D01*
X46009339Y-38481000D01*
X46054674Y-38485465D01*
X46054674Y-38485465D01*
G37*
G36*
X52912674Y-38485465D02*
G01*
X52950367Y-38496899D01*
X52985103Y-38515466D01*
X53015548Y-38540452D01*
X53040534Y-38570897D01*
X53059101Y-38605633D01*
X53070535Y-38643326D01*
X53075000Y-38688661D01*
X53075000Y-39525339D01*
X53070535Y-39570674D01*
X53059101Y-39608367D01*
X53040534Y-39643103D01*
X53015548Y-39673548D01*
X52985103Y-39698534D01*
X52950367Y-39717101D01*
X52912674Y-39728535D01*
X52867339Y-39733000D01*
X51780661Y-39733000D01*
X51735326Y-39728535D01*
X51697633Y-39717101D01*
X51662897Y-39698534D01*
X51632452Y-39673548D01*
X51607466Y-39643103D01*
X51588899Y-39608367D01*
X51577465Y-39570674D01*
X51573000Y-39525339D01*
X51573000Y-38688661D01*
X51577465Y-38643326D01*
X51588899Y-38605633D01*
X51607466Y-38570897D01*
X51632452Y-38540452D01*
X51662897Y-38515466D01*
X51697633Y-38496899D01*
X51735326Y-38485465D01*
X51780661Y-38481000D01*
X52867339Y-38481000D01*
X52912674Y-38485465D01*
X52912674Y-38485465D01*
G37*
G36*
X50626674Y-38485465D02*
G01*
X50664367Y-38496899D01*
X50699103Y-38515466D01*
X50729548Y-38540452D01*
X50754534Y-38570897D01*
X50773101Y-38605633D01*
X50784535Y-38643326D01*
X50789000Y-38688661D01*
X50789000Y-39525339D01*
X50784535Y-39570674D01*
X50773101Y-39608367D01*
X50754534Y-39643103D01*
X50729548Y-39673548D01*
X50699103Y-39698534D01*
X50664367Y-39717101D01*
X50626674Y-39728535D01*
X50581339Y-39733000D01*
X49494661Y-39733000D01*
X49449326Y-39728535D01*
X49411633Y-39717101D01*
X49376897Y-39698534D01*
X49346452Y-39673548D01*
X49321466Y-39643103D01*
X49302899Y-39608367D01*
X49291465Y-39570674D01*
X49287000Y-39525339D01*
X49287000Y-38688661D01*
X49291465Y-38643326D01*
X49302899Y-38605633D01*
X49321466Y-38570897D01*
X49346452Y-38540452D01*
X49376897Y-38515466D01*
X49411633Y-38496899D01*
X49449326Y-38485465D01*
X49494661Y-38481000D01*
X50581339Y-38481000D01*
X50626674Y-38485465D01*
X50626674Y-38485465D01*
G37*
G36*
X27766674Y-38485465D02*
G01*
X27804367Y-38496899D01*
X27839103Y-38515466D01*
X27869548Y-38540452D01*
X27894534Y-38570897D01*
X27913101Y-38605633D01*
X27924535Y-38643326D01*
X27929000Y-38688661D01*
X27929000Y-39525339D01*
X27924535Y-39570674D01*
X27913101Y-39608367D01*
X27894534Y-39643103D01*
X27869548Y-39673548D01*
X27839103Y-39698534D01*
X27804367Y-39717101D01*
X27766674Y-39728535D01*
X27721339Y-39733000D01*
X26634661Y-39733000D01*
X26589326Y-39728535D01*
X26551633Y-39717101D01*
X26516897Y-39698534D01*
X26486452Y-39673548D01*
X26461466Y-39643103D01*
X26442899Y-39608367D01*
X26431465Y-39570674D01*
X26427000Y-39525339D01*
X26427000Y-38688661D01*
X26431465Y-38643326D01*
X26442899Y-38605633D01*
X26461466Y-38570897D01*
X26486452Y-38540452D01*
X26516897Y-38515466D01*
X26551633Y-38496899D01*
X26589326Y-38485465D01*
X26634661Y-38481000D01*
X27721339Y-38481000D01*
X27766674Y-38485465D01*
X27766674Y-38485465D01*
G37*
G36*
X43514674Y-38485465D02*
G01*
X43552367Y-38496899D01*
X43587103Y-38515466D01*
X43617548Y-38540452D01*
X43642534Y-38570897D01*
X43661101Y-38605633D01*
X43672535Y-38643326D01*
X43677000Y-38688661D01*
X43677000Y-39525339D01*
X43672535Y-39570674D01*
X43661101Y-39608367D01*
X43642534Y-39643103D01*
X43617548Y-39673548D01*
X43587103Y-39698534D01*
X43552367Y-39717101D01*
X43514674Y-39728535D01*
X43469339Y-39733000D01*
X42382661Y-39733000D01*
X42337326Y-39728535D01*
X42299633Y-39717101D01*
X42264897Y-39698534D01*
X42234452Y-39673548D01*
X42209466Y-39643103D01*
X42190899Y-39608367D01*
X42179465Y-39570674D01*
X42175000Y-39525339D01*
X42175000Y-38688661D01*
X42179465Y-38643326D01*
X42190899Y-38605633D01*
X42209466Y-38570897D01*
X42234452Y-38540452D01*
X42264897Y-38515466D01*
X42299633Y-38496899D01*
X42337326Y-38485465D01*
X42382661Y-38481000D01*
X43469339Y-38481000D01*
X43514674Y-38485465D01*
X43514674Y-38485465D01*
G37*
G36*
X48340674Y-38485465D02*
G01*
X48378367Y-38496899D01*
X48413103Y-38515466D01*
X48443548Y-38540452D01*
X48468534Y-38570897D01*
X48487101Y-38605633D01*
X48498535Y-38643326D01*
X48503000Y-38688661D01*
X48503000Y-39525339D01*
X48498535Y-39570674D01*
X48487101Y-39608367D01*
X48468534Y-39643103D01*
X48443548Y-39673548D01*
X48413103Y-39698534D01*
X48378367Y-39717101D01*
X48340674Y-39728535D01*
X48295339Y-39733000D01*
X47208661Y-39733000D01*
X47163326Y-39728535D01*
X47125633Y-39717101D01*
X47090897Y-39698534D01*
X47060452Y-39673548D01*
X47035466Y-39643103D01*
X47016899Y-39608367D01*
X47005465Y-39570674D01*
X47001000Y-39525339D01*
X47001000Y-38688661D01*
X47005465Y-38643326D01*
X47016899Y-38605633D01*
X47035466Y-38570897D01*
X47060452Y-38540452D01*
X47090897Y-38515466D01*
X47125633Y-38496899D01*
X47163326Y-38485465D01*
X47208661Y-38481000D01*
X48295339Y-38481000D01*
X48340674Y-38485465D01*
X48340674Y-38485465D01*
G37*
G36*
X30426674Y-38115465D02*
G01*
X30464367Y-38126899D01*
X30499103Y-38145466D01*
X30529548Y-38170452D01*
X30554534Y-38200897D01*
X30573101Y-38235633D01*
X30584535Y-38273326D01*
X30589000Y-38318661D01*
X30589000Y-39405339D01*
X30584535Y-39450674D01*
X30573101Y-39488367D01*
X30554534Y-39523103D01*
X30529548Y-39553548D01*
X30499103Y-39578534D01*
X30464367Y-39597101D01*
X30426674Y-39608535D01*
X30381339Y-39613000D01*
X29544661Y-39613000D01*
X29499326Y-39608535D01*
X29461633Y-39597101D01*
X29426897Y-39578534D01*
X29396452Y-39553548D01*
X29371466Y-39523103D01*
X29352899Y-39488367D01*
X29341465Y-39450674D01*
X29337000Y-39405339D01*
X29337000Y-38318661D01*
X29341465Y-38273326D01*
X29352899Y-38235633D01*
X29371466Y-38200897D01*
X29396452Y-38170452D01*
X29426897Y-38145466D01*
X29461633Y-38126899D01*
X29499326Y-38115465D01*
X29544661Y-38111000D01*
X30381339Y-38111000D01*
X30426674Y-38115465D01*
X30426674Y-38115465D01*
G37*
G36*
X32476674Y-38115465D02*
G01*
X32514367Y-38126899D01*
X32549103Y-38145466D01*
X32579548Y-38170452D01*
X32604534Y-38200897D01*
X32623101Y-38235633D01*
X32634535Y-38273326D01*
X32639000Y-38318661D01*
X32639000Y-39405339D01*
X32634535Y-39450674D01*
X32623101Y-39488367D01*
X32604534Y-39523103D01*
X32579548Y-39553548D01*
X32549103Y-39578534D01*
X32514367Y-39597101D01*
X32476674Y-39608535D01*
X32431339Y-39613000D01*
X31594661Y-39613000D01*
X31549326Y-39608535D01*
X31511633Y-39597101D01*
X31476897Y-39578534D01*
X31446452Y-39553548D01*
X31421466Y-39523103D01*
X31402899Y-39488367D01*
X31391465Y-39450674D01*
X31387000Y-39405339D01*
X31387000Y-38318661D01*
X31391465Y-38273326D01*
X31402899Y-38235633D01*
X31421466Y-38200897D01*
X31446452Y-38170452D01*
X31476897Y-38145466D01*
X31511633Y-38126899D01*
X31549326Y-38115465D01*
X31594661Y-38111000D01*
X32431339Y-38111000D01*
X32476674Y-38115465D01*
X32476674Y-38115465D01*
G37*
G36*
X24015000Y-39509000D02*
G01*
X22213000Y-39509000D01*
X22213000Y-37707000D01*
X24015000Y-37707000D01*
X24015000Y-39509000D01*
X24015000Y-39509000D01*
G37*
G36*
X35132674Y-38231465D02*
G01*
X35170367Y-38242899D01*
X35205103Y-38261466D01*
X35235548Y-38286452D01*
X35260534Y-38316897D01*
X35279101Y-38351633D01*
X35290535Y-38389326D01*
X35295000Y-38434661D01*
X35295000Y-39271339D01*
X35290535Y-39316674D01*
X35279101Y-39354367D01*
X35260534Y-39389103D01*
X35235548Y-39419548D01*
X35205103Y-39444534D01*
X35170367Y-39463101D01*
X35132674Y-39474535D01*
X35087339Y-39479000D01*
X34000661Y-39479000D01*
X33955326Y-39474535D01*
X33917633Y-39463101D01*
X33882897Y-39444534D01*
X33852452Y-39419548D01*
X33827466Y-39389103D01*
X33808899Y-39354367D01*
X33797465Y-39316674D01*
X33793000Y-39271339D01*
X33793000Y-38434661D01*
X33797465Y-38389326D01*
X33808899Y-38351633D01*
X33827466Y-38316897D01*
X33852452Y-38286452D01*
X33882897Y-38261466D01*
X33917633Y-38242899D01*
X33955326Y-38231465D01*
X34000661Y-38227000D01*
X35087339Y-38227000D01*
X35132674Y-38231465D01*
X35132674Y-38231465D01*
G37*
G36*
X55385562Y-37123181D02*
G01*
X55420481Y-37133774D01*
X55452663Y-37150976D01*
X55480873Y-37174127D01*
X55504024Y-37202337D01*
X55521226Y-37234519D01*
X55531819Y-37269438D01*
X55536000Y-37311895D01*
X55536000Y-38453105D01*
X55531819Y-38495562D01*
X55521226Y-38530481D01*
X55504024Y-38562663D01*
X55480873Y-38590873D01*
X55452663Y-38614024D01*
X55420481Y-38631226D01*
X55385562Y-38641819D01*
X55343105Y-38646000D01*
X53876895Y-38646000D01*
X53834438Y-38641819D01*
X53799519Y-38631226D01*
X53767337Y-38614024D01*
X53739127Y-38590873D01*
X53715976Y-38562663D01*
X53698774Y-38530481D01*
X53688181Y-38495562D01*
X53684000Y-38453105D01*
X53684000Y-37311895D01*
X53688181Y-37269438D01*
X53698774Y-37234519D01*
X53715976Y-37202337D01*
X53739127Y-37174127D01*
X53767337Y-37150976D01*
X53799519Y-37133774D01*
X53834438Y-37123181D01*
X53876895Y-37119000D01*
X55343105Y-37119000D01*
X55385562Y-37123181D01*
X55385562Y-37123181D01*
G37*
M02*
